<?xml version="1.0" encoding="UTF-8" standalone="no"?>
<svg
   xmlns:dc="http://purl.org/dc/elements/1.1/"
   xmlns:cc="http://creativecommons.org/ns#"
   xmlns:rdf="http://www.w3.org/1999/02/22-rdf-syntax-ns#"
   xmlns:svg="http://www.w3.org/2000/svg"
   xmlns="http://www.w3.org/2000/svg"
   xmlns:xlink="http://www.w3.org/1999/xlink"
   xmlns:sodipodi="http://sodipodi.sourceforge.net/DTD/sodipodi-0.dtd"
   xmlns:inkscape="http://www.inkscape.org/namespaces/inkscape"
   version="1.0"
   width="300"
   height="300"
   viewBox="-18 -6 36 17"
   id="svg2"
   sodipodi:version="0.32"
   inkscape:version="0.46"
   sodipodi:docname="Africa.svg"
   inkscape:output_extension="org.inkscape.output.svg.inkscape"
   inkscape:export-filename="C:\Documents and Settings\Boulba\Mes documents\Firaxis ModBuddy\IngameEditor\IngameEditor\Art\IgeMenuTerrain.png"
   inkscape:export-xdpi="19.200001"
   inkscape:export-ydpi="19.200001"><metadata
   id="metadata16">
  <rdf:RDF>
    <cc:Work
       rdf:about="">
      <dc:format>image/svg+xml</dc:format>
      <dc:type
         rdf:resource="http://purl.org/dc/dcmitype/StillImage" />
    </cc:Work>
  </rdf:RDF>
</metadata>
<sodipodi:namedview
   inkscape:window-height="1010"
   inkscape:window-width="1920"
   inkscape:pageshadow="2"
   inkscape:pageopacity="0.0"
   guidetolerance="10.0"
   gridtolerance="10.0"
   objecttolerance="10.0"
   borderopacity="1.0"
   bordercolor="#666666"
   pagecolor="#ffffff"
   id="base"
   showgrid="false"
   inkscape:zoom="1.54"
   inkscape:cx="54.545455"
   inkscape:cy="150"
   inkscape:window-x="-4"
   inkscape:window-y="-4"
   inkscape:current-layer="svg2" />
<defs
   id="defs4">
  <linearGradient
     id="linearGradient3244">
    <stop
       id="stop3252"
       offset="0"
       style="stop-color:#00ff00;stop-opacity:1;" />
    <stop
       id="stop3254"
       offset="1"
       style="stop-color:#cbff31;stop-opacity:1;" />
  </linearGradient>
  <linearGradient
     id="linearGradient3161">
    <stop
       style="stop-color:#cdcda0;stop-opacity:1;"
       offset="0"
       id="stop3163" />
    <stop
       id="stop3240"
       offset="0.11275749"
       style="stop-color:#cdcda0;stop-opacity:1;" />
    <stop
       id="stop3169"
       offset="0.40000001"
       style="stop-color:#ffff86;stop-opacity:1;" />
    <stop
       style="stop-color:#ffffff;stop-opacity:1;"
       offset="0.75"
       id="stop3242" />
    <stop
       style="stop-color:#ffffff;stop-opacity:1;"
       offset="1"
       id="stop3165" />
  </linearGradient>
  <inkscape:perspective
     sodipodi:type="inkscape:persp3d"
     inkscape:vp_x="0 : 150 : 1"
     inkscape:vp_y="0 : 1000 : 0"
     inkscape:vp_z="300 : 150 : 1"
     inkscape:persp3d-origin="150 : 100 : 1"
     id="perspective18" />
  <clipPath
     id="clip_white">
    <path
       d="M 0,0 L -10,-5 L -10,5 L 0,0 z M 0,0 L 0.1,-10 L 8.1,-10 L 0,0 z "
       id="path7" />
  </clipPath>
  <clipPath
     id="clip_color">
    <path
       d="M 0,0 L -10,-10 L -10,10 L 0,0 z M 0,0 L 0,-10 L 10,-10 L 0,0 z "
       id="path10" />
  </clipPath>
  <linearGradient
     inkscape:collect="always"
     xlink:href="#linearGradient3244"
     id="linearGradient3198"
     gradientUnits="userSpaceOnUse"
     gradientTransform="matrix(0.106453,0,0,0.1050521,-16.195864,-13.369857)"
     x1="146.55605"
     y1="296.3624"
     x2="146.55605"
     y2="4.3216219" />
  <filter
     inkscape:collect="always"
     id="filter3216">
    <feGaussianBlur
       inkscape:collect="always"
       stdDeviation="0.15170873"
       id="feGaussianBlur3218" />
  </filter>
</defs>
<path
   style="fill:#808080;fill-opacity:1;stroke:none;stroke-width:0.80054075;stroke-miterlimit:4;stroke-dasharray:none;stroke-opacity:1;filter:url(#filter3216)"
   d="M -3.7299664,-13.800069 C -3.7328636,-13.800151 -3.7335848,-13.794696 -3.7337169,-13.785204 C -3.7339197,-13.77063 -3.8097626,-13.73616 -3.9024867,-13.707163 C -3.9981128,-13.677258 -4.0844438,-13.634732 -4.0975097,-13.61054 C -4.1238348,-13.5618 -4.3170131,-13.503002 -4.3750424,-13.525067 C -4.3963221,-13.533158 -4.4326708,-13.527114 -4.4575521,-13.513918 C -4.4912761,-13.496034 -4.5279032,-13.500881 -4.5963184,-13.536215 C -4.7501225,-13.615653 -4.8326539,-13.6221 -4.8776016,-13.558513 C -4.9147327,-13.505984 -4.9182215,-13.507906 -4.9938652,-13.543648 C -5.1515014,-13.618134 -5.2255957,-13.619806 -5.2863997,-13.554797 C -5.3203877,-13.518456 -5.3824734,-13.487636 -5.4476687,-13.476755 C -5.5059727,-13.467027 -5.5773584,-13.441859 -5.6089377,-13.417295 C -5.6831436,-13.359571 -5.6856195,-13.35898 -5.7927093,-13.443309 C -5.8805489,-13.512477 -5.8917222,-13.513918 -6.1339995,-13.513918 C -6.3059181,-13.513918 -6.4064783,-13.5042 -6.452787,-13.480472 C -6.4934203,-13.459651 -6.5660749,-13.449071 -6.6328082,-13.454458 C -6.7130331,-13.460936 -6.7579507,-13.451803 -6.7978277,-13.421012 C -6.8281435,-13.397602 -6.9078928,-13.372405 -6.9740984,-13.365268 C -7.5341026,-13.304912 -7.5957808,-13.294996 -7.6791815,-13.238915 C -7.7259327,-13.20748 -7.7765684,-13.179455 -7.7954452,-13.179455 C -7.8143205,-13.179455 -7.8916737,-13.119885 -7.964215,-13.04567 C -8.0640374,-12.943546 -8.1006626,-12.91702 -8.1217336,-12.937899 C -8.1610312,-12.976839 -8.2365567,-12.972926 -8.252999,-12.930466 C -8.2619527,-12.907344 -8.2988934,-12.893304 -8.3580114,-12.893304 C -8.4368914,-12.893304 -8.4628981,-12.877434 -8.5530344,-12.7781 C -8.6105361,-12.71473 -8.706314,-12.635211 -8.7630591,-12.59972 C -8.8579432,-12.540371 -8.8811049,-12.537149 -9.0518431,-12.547692 C -9.2367939,-12.559114 -9.2926817,-12.587268 -9.3256253,-12.685194 C -9.3320131,-12.704185 -9.3619572,-12.694408 -9.4118855,-12.65918 C -9.5005399,-12.596628 -9.511269,-12.595546 -9.5656536,-12.644315 C -9.5957592,-12.67131 -9.6202984,-12.675373 -9.6519138,-12.65918 C -9.7365798,-12.615816 -9.9439886,-12.580395 -10.015707,-12.596003 C -10.119205,-12.618528 -10.328906,-12.79078 -10.345745,-12.86729 C -10.37334,-12.992685 -10.438543,-13.086549 -10.495763,-13.086549 C -10.528347,-13.086549 -10.548269,-13.070696 -10.548269,-13.049386 C -10.548269,-13.029705 -10.533595,-13.012224 -10.514515,-13.012224 C -10.436524,-13.012224 -10.45816,-12.964649 -10.548269,-12.937899 C -10.611132,-12.919235 -10.64791,-12.892439 -10.657032,-12.859857 C -10.664736,-12.832339 -10.679751,-12.789476 -10.690786,-12.763235 C -10.701822,-12.736993 -10.749206,-12.617466 -10.792048,-12.499381 C -10.834888,-12.381296 -10.880572,-12.270072 -10.89706,-12.250392 C -10.913545,-12.230712 -10.949085,-12.162641 -10.975819,-12.101742 C -11.027439,-11.984154 -11.202528,-11.835366 -11.365865,-11.770995 C -11.412209,-11.752731 -11.483659,-11.720264 -11.523384,-11.69667 C -11.563107,-11.673078 -11.614929,-11.652124 -11.635897,-11.652075 C -11.673534,-11.651988 -11.743369,-11.589858 -11.984688,-11.33991 C -12.094032,-11.226656 -12.10949,-11.197505 -12.119704,-11.087205 C -12.128608,-10.991044 -12.149038,-10.939572 -12.213465,-10.860513 C -12.326471,-10.721843 -12.350935,-10.652537 -12.363483,-10.395982 C -12.372905,-10.203359 -12.365492,-10.171277 -12.325978,-10.135844 C -12.266754,-10.082735 -12.271578,-9.9915755 -12.33723,-9.8868545 C -12.366448,-9.8402495 -12.42127,-9.7501275 -12.460994,-9.6861775 C -12.571081,-9.5089505 -12.680302,-9.3985959 -12.843539,-9.2959706 C -12.925206,-9.2446289 -13.031131,-9.1568402 -13.079817,-9.1027254 C -13.128503,-9.0486106 -13.185974,-9.006103 -13.207332,-9.0061028 C -13.228691,-9.0061028 -13.290072,-8.9842158 -13.342348,-8.9577916 C -13.394622,-8.931366 -13.50167,-8.9029747 -13.582376,-8.8946153 C -13.718115,-8.8805566 -13.735185,-8.8736934 -13.7849,-8.7942764 C -13.81446,-8.7470584 -13.865662,-8.6425916 -13.897414,-8.5638688 C -13.997775,-8.3150319 -14.026709,-8.2702975 -14.137442,-8.1959598 C -14.196895,-8.1560493 -14.256191,-8.1218733 -14.268707,-8.1216347 C -14.317714,-8.1206994 -14.425492,-7.9906996 -14.426226,-7.9321058 C -14.426647,-7.8984789 -14.440539,-7.8535194 -14.45998,-7.8280507 C -14.479419,-7.8025823 -14.497484,-7.7609871 -14.497484,-7.7388607 C -14.497484,-7.7167338 -14.515128,-7.6845854 -14.534989,-7.6682519 C -14.558719,-7.6487377 -14.568743,-7.5983891 -14.568743,-7.5158855 C -14.568743,-7.4468294 -14.581634,-7.3627529 -14.598746,-7.3300729 C -14.615857,-7.2973928 -14.727664,-7.1722343 -14.846275,-7.0513539 C -14.996063,-6.8986996 -15.06071,-6.8141085 -15.0563,-6.7800675 C -15.052808,-6.7531119 -15.073666,-6.6927006 -15.101305,-6.6462824 C -15.128945,-6.5998639 -15.167772,-6.5129716 -15.187565,-6.4530372 C -15.257053,-6.2426483 -15.314265,-6.1445885 -15.363836,-6.1445883 C -15.389784,-6.1445883 -15.419223,-6.1229544 -15.431344,-6.0999932 C -15.458225,-6.0490754 -15.534111,-5.731442 -15.543857,-5.6280291 C -15.547747,-5.5867642 -15.56378,-5.5310007 -15.577611,-5.5053928 C -15.595547,-5.4721825 -15.593662,-5.4506903 -15.573861,-5.4310677 C -15.529733,-5.3873419 -15.510103,-5.3980755 -15.510103,-5.464514 C -15.510103,-5.5443893 -15.46016,-5.5291875 -15.412592,-5.434784 C -15.392731,-5.3953659 -15.334731,-5.3236139 -15.285077,-5.2749851 C -15.18536,-5.1773289 -15.169699,-5.0915089 -15.236321,-5.0185637 C -15.294029,-4.9553781 -15.309315,-4.7330553 -15.258824,-4.6915334 C -15.237552,-4.6740417 -15.217569,-4.635648 -15.217569,-4.6060596 C -15.217569,-4.5764715 -15.203675,-4.5369189 -15.183815,-4.5205858 C -15.163953,-4.5042523 -15.146311,-4.4719869 -15.146311,-4.449977 C -15.146311,-4.4279665 -15.134282,-4.400895 -15.120057,-4.3868007 C -15.103712,-4.3706039 -15.097948,-4.2827908 -15.105056,-4.1489605 C -15.119335,-3.8800904 -15.142196,-3.7867924 -15.195066,-3.758754 C -15.222346,-3.7442886 -15.242149,-3.6950772 -15.251323,-3.6212527 C -15.298174,-3.2442159 -15.313661,-3.1611624 -15.360086,-3.0638148 C -15.414434,-2.9498509 -15.590815,-2.7266406 -15.637618,-2.7107707 C -15.781684,-2.6619231 -15.786388,-2.6569939 -15.742631,-2.6327294 C -15.719354,-2.6198219 -15.688624,-2.6170284 -15.675123,-2.6252969 C -15.641443,-2.6459236 -15.522478,-2.5131375 -15.487601,-2.4171868 C -15.471894,-2.3739772 -15.429869,-2.2859109 -15.39759,-2.2239416 C -15.340952,-2.1152047 -15.342489,-2.1134102 -15.386339,-2.0901565 C -15.426133,-2.069053 -15.431532,-2.0340857 -15.431344,-1.8300189 C -15.43116,-1.62785 -15.425789,-1.5904413 -15.382588,-1.5438674 C -15.355204,-1.5143467 -15.318322,-1.4918399 -15.300079,-1.4918399 C -15.281836,-1.4918399 -15.253001,-1.4617008 -15.240072,-1.4249473 C -15.22714,-1.3881927 -15.185889,-1.3403428 -15.146311,-1.317176 C -15.060699,-1.2670654 -15.077066,-1.2183498 -15.172564,-1.2391347 C -15.250912,-1.2561854 -15.297759,-1.2100266 -15.236321,-1.1759584 C -15.212055,-1.1625014 -15.195066,-1.1244018 -15.195066,-1.0756196 C -15.195066,-0.96367183 -15.141519,-0.92610253 -15.06005,-0.97899703 C -15.014558,-1.008532 -14.989077,-1.0127275 -14.97004,-0.99386203 C -14.928076,-0.95228163 -14.900874,-0.96043123 -14.917534,-1.0124433 C -14.943076,-1.0921851 -14.867205,-1.0994381 -14.775017,-1.023592 C -14.729498,-0.98614053 -14.685932,-0.93506553 -14.677505,-0.91210443 C -14.669078,-0.88914333 -14.639284,-0.87122573 -14.609997,-0.87122573 C -14.571147,-0.87122573 -14.525014,-0.82892223 -14.444978,-0.71142683 C -14.362282,-0.59002723 -14.32044,-0.54613263 -14.272458,-0.54047923 C -14.126124,-0.52323578 -13.852491,-0.11506993 -13.882412,0.042972478 C -13.900292,0.1374093 -13.862979,0.24146081 -13.788651,0.29939392 C -13.732771,0.34294959 -13.691514,0.44047476 -13.69864,0.51122032 C -13.700683,0.53148668 -13.663384,0.5669879 -13.61238,0.58926163 C -13.250724,0.74719345 -13.106373,0.82019255 -13.072316,0.87169684 C -13.051041,0.90386948 -12.981245,0.95866547 -12.918548,0.99061692 C -12.855854,1.0225684 -12.801935,1.0613435 -12.794784,1.079807 C -12.787634,1.0982717 -12.724885,1.1388175 -12.656017,1.168997 C -12.578785,1.2028405 -12.501438,1.2613801 -12.453493,1.3213634 C -12.410742,1.3748501 -12.363477,1.4179848 -12.352232,1.417986 C -12.340985,1.417986 -12.281826,1.4708674 -12.217216,1.5331898 C -12.152605,1.5955123 -12.046311,1.6694735 -11.980938,1.7004212 C -11.915564,1.7313678 -11.843281,1.7669998 -11.823419,1.7784625 C -11.737946,1.8277941 -11.586067,1.8966857 -11.557138,1.8973826 C -11.539859,1.8978 -11.504082,1.9152825 -11.478379,1.9345451 C -11.426575,1.9733702 -11.282329,1.980126 -11.260853,1.9456939 C -11.253299,1.9335831 -11.213251,1.9169438 -11.174593,1.9085314 C -11.135937,1.9001178 -11.092858,1.8790582 -11.077081,1.8602201 C -11.061305,1.8413831 -11.018477,1.8230588 -10.98332,1.8230576 C -10.948164,1.8230576 -10.900676,1.8106173 -10.874558,1.7933275 C -10.809823,1.7504747 -10.621309,1.6831956 -10.522016,1.6669749 C -10.045618,1.5891465 -9.7028356,1.5848059 -9.3443775,1.6558262 C -9.1639213,1.6915795 -9.048362,1.729433 -9.0143387,1.7598813 C -8.9495581,1.8178572 -8.8470432,1.7996719 -8.77056,1.7190025 C -8.736604,1.6831873 -8.6643638,1.6531326 -8.5680361,1.6335287 C -8.4287612,1.6051853 -8.3695588,1.5816962 -8.1704893,1.4811623 C -8.1274562,1.4594296 -8.0597556,1.4246919 -8.0167212,1.403121 C -7.9736881,1.3815512 -7.8658361,1.3596592 -7.7804434,1.3548097 C -7.637108,1.3466696 -7.6192879,1.3424004 -7.5554169,1.2656196 C -7.5153264,1.2174261 -7.4657756,1.1802956 -7.4354028,1.1801458 C -7.4065736,1.1800043 -7.3280139,1.1625611 -7.2628824,1.1429833 C -7.1977492,1.1234043 -7.117038,1.1097118 -7.0828612,1.109537 C -7.0486857,1.109361 -6.9736761,1.1045935 -6.9140914,1.0983882 C -6.6076667,1.0664772 -6.217164,1.0583324 -6.1227482,1.0835232 C -5.9528346,1.1288591 -5.7329231,1.4096663 -5.6464421,1.6892725 C -5.6306182,1.7404378 -5.5685133,1.8319956 -5.5114262,1.8899501 L -5.4101643,1.9940052 L -5.2151413,1.9828564 C -5.109212,1.9755048 -4.947787,1.9588905 -4.8550989,1.9456939 C -4.7624108,1.9324973 -4.6232592,1.9128874 -4.5438122,1.9048151 C -4.4643653,1.8967428 -4.3784088,1.8757725 -4.3562902,1.8565038 C -4.3204527,1.8252849 -4.3134379,1.8257226 -4.2887822,1.8713688 C -4.2667548,1.9121549 -4.2498388,1.9204626 -4.1950212,1.9085314 C -4.1288346,1.8941278 -4.1243136,1.8986729 -4.108761,2.0014377 C -4.0951802,2.0911772 -4.0835412,2.1108347 -4.0300017,2.124074 C -3.9071157,2.1544581 -3.8107263,2.2316051 -3.7374673,2.3656305 L -3.6624585,2.5031318 L -3.6999629,2.7075257 C -3.7198108,2.8199492 -3.7374265,2.9413369 -3.7374673,2.9788122 C -3.7375129,3.0184672 -3.7666163,3.0859294 -3.8087257,3.138611 C -3.9029044,3.2564382 -3.9224679,3.3546484 -3.8687328,3.4359112 C -3.8292565,3.4956115 -3.8280372,3.4990828 -3.8762336,3.5325338 C -3.9205753,3.5633091 -3.9286606,3.5946803 -3.9287398,3.7778065 C -3.9288118,3.9448083 -3.9377337,3.9993332 -3.9774956,4.0639579 C -4.020523,4.1338901 -4.0349211,4.1432539 -4.0975097,4.1308505 C -4.1889737,4.1127259 -4.2096689,4.157334 -4.1575168,4.2609193 C -4.1364339,4.3027982 -4.1200123,4.3543537 -4.1200123,4.3761232 C -4.1200123,4.3978939 -4.0884786,4.4461849 -4.048754,4.4838945 C -4.0090317,4.5216064 -3.9774956,4.5694266 -3.9774956,4.5879496 C -3.9774956,4.6431226 -3.8964692,4.7922686 -3.8499805,4.8257898 C -3.8262045,4.8429333 -3.8087257,4.8708498 -3.8087257,4.888966 C -3.8087257,4.9070811 -3.7451254,4.9744732 -3.6699593,5.0376162 C -3.5452215,5.1424002 -3.4190578,5.2662376 -3.3061665,5.3906602 C -3.2823581,5.4169011 -3.2305564,5.4835475 -3.1936533,5.5393103 C -3.1567501,5.5950719 -3.1194413,5.6433653 -3.1073931,5.6433653 C -3.0603284,5.6433653 -2.8478985,5.8650562 -2.8336109,5.9295168 C -2.8253155,5.9669398 -2.8009886,6.0097891 -2.7811047,6.0261394 C -2.7200631,6.0763367 -2.6760935,6.1845493 -2.6760923,6.2825608 C -2.6760923,6.3412657 -2.6590695,6.3986696 -2.6273366,6.4386434 C -2.5885288,6.4875303 -2.580057,6.510162 -2.6010835,6.535266 C -2.6323112,6.572551 -2.57797,6.6890285 -2.4585667,6.8325662 C -2.4201946,6.8786929 -2.3873083,6.9416171 -2.3873083,6.9700676 C -2.3873083,6.9985168 -2.3335012,7.1343117 -2.2672942,7.2748003 C -2.2010884,7.4152889 -2.14728,7.5490681 -2.14728,7.5721005 C -2.14728,7.5951329 -2.1835747,7.663141 -2.2297898,7.7207506 C -2.3118386,7.8230266 -2.3342645,7.8927757 -2.2935473,7.917712 C -2.282422,7.9245249 -2.2446559,8.0231382 -2.2072871,8.1369709 C -2.1690554,8.2534282 -2.1024824,8.3904431 -2.0572694,8.4491361 C -2.0130754,8.5065056 -1.9785102,8.5705666 -1.9785102,8.59407 C -1.9785102,8.6175734 -1.9667308,8.6503382 -1.9522571,8.6646788 C -1.9332192,8.6835431 -1.9317623,8.72666 -1.9522571,8.8244777 C -1.9678373,8.8988443 -1.9778633,8.9740114 -1.9710093,8.991709 C -1.9423187,9.0657927 -2.0142,9.2012486 -2.1622818,9.3447531 C -2.2463169,9.4261895 -2.340294,9.532956 -2.3685561,9.578877 C -2.3968158,9.624798 -2.4396129,9.6827049 -2.4623171,9.7089458 C -2.4850214,9.7351879 -2.5091335,9.8013979 -2.5185738,9.8538797 C -2.5280153,9.9063615 -2.5443432,9.9587196 -2.5560782,9.9727998 C -2.5678132,9.9868811 -2.5836226,10.044788 -2.5898322,10.102869 C -2.6039962,10.235405 -2.6346322,10.352311 -2.6835932,10.459629 C -2.7045453,10.505549 -2.7279384,10.594015 -2.7360994,10.65659 C -2.7469127,10.739468 -2.7663789,10.782349 -2.8073578,10.808956 C -2.858707,10.842293 -2.8641845,10.858156 -2.8523631,10.987336 C -2.8436092,11.082982 -2.8468784,11.137544 -2.8673648,11.162 C -2.8913533,11.190641 -2.894218,11.214506 -2.8711153,11.269771 C -2.855061,11.308176 -2.8485382,11.35733 -2.8561135,11.381259 C -2.8636876,11.405186 -2.8687246,11.505829 -2.8711153,11.604234 C -2.8748465,11.757843 -2.867102,11.804661 -2.8073578,11.927548 C -2.7690841,12.00627 -2.7002692,12.117492 -2.6535897,12.176537 C -2.606909,12.235579 -2.5535315,12.30638 -2.537326,12.33262 C -2.4929303,12.40451 -2.3385526,12.716139 -2.3385526,12.733975 C -2.3385526,12.742553 -2.3070188,12.794841 -2.2672942,12.849179 C -2.2275695,12.903517 -2.1960766,12.970278 -2.1960358,12.997829 C -2.1959494,13.057172 -2.0675342,13.318989 -1.959758,13.477226 C -1.9177386,13.538919 -1.8809987,13.592582 -1.8809987,13.599862 C -1.8809987,13.607142 -1.8494626,13.660461 -1.8097403,13.718782 C -1.7700156,13.777103 -1.7384807,13.834077 -1.7384819,13.845135 C -1.7384819,13.856194 -1.7236638,13.87138 -1.7047279,13.878581 C -1.6573655,13.896589 -1.6252066,14.100467 -1.6634731,14.146151 C -1.6862866,14.173389 -1.6883604,14.22345 -1.6672235,14.376559 C -1.6512988,14.491909 -1.6479516,14.606569 -1.6597226,14.647845 C -1.6820393,14.726101 -1.6454841,14.858231 -1.5659616,14.986024 C -1.5288628,15.045639 -1.5147011,15.119041 -1.5059545,15.316771 C -1.4997738,15.456504 -1.4851225,15.590147 -1.4722005,15.614071 C -1.4592786,15.637993 -1.4496979,15.695246 -1.4496979,15.740423 C -1.4496979,15.7856 -1.4319274,15.835682 -1.4121935,15.851911 C -1.3898913,15.870251 -1.3809622,15.902927 -1.3896908,15.937385 C -1.3974281,15.967928 -1.3873662,16.023066 -1.3671882,16.060021 C -1.3470438,16.096911 -1.3185849,16.180468 -1.3034307,16.245834 C -1.2649325,16.411895 -1.1785224,16.544644 -0.96214044,16.762393 C -0.85952116,16.865664 -0.77461836,16.958436 -0.77461836,16.970503 C -0.77461836,16.982572 -0.74605499,17.025677 -0.71086085,17.067126 C -0.65386734,17.134239 -0.51447692,17.480494 -0.4633317,17.680307 C -0.45287007,17.721183 -0.41766873,17.805749 -0.38457243,17.869836 C -0.35147373,17.933925 -0.29384654,18.046662 -0.25705741,18.118825 C -0.22027068,18.190987 -0.17109969,18.270961 -0.1482946,18.297205 C 0.067220774,18.545163 0.098322444,18.958877 -0.095788417,18.980996 C -0.18386799,18.991033 -0.19774042,19.096396 -0.12579195,19.192822 C -0.098245107,19.229742 -0.077037409,19.269827 -0.077036209,19.278296 C -0.077036209,19.286764 -0.043330236,19.340289 -0.0020273758,19.400932 C 0.069630664,19.506139 0.072197764,19.518282 0.046728364,19.627624 C 0.026297164,19.715325 0.027815334,19.751462 0.050478804,19.787423 C 0.088333664,19.847487 0.10011785,19.845766 0.12923808,19.77999 C 0.14248644,19.750069 0.17365651,19.727963 0.20049647,19.727963 C 0.23794688,19.727963 0.24925341,19.742909 0.24925221,19.798571 C 0.24925221,19.85862 0.25728116,19.871563 0.30175839,19.865464 C 0.36428696,19.856891 0.47802915,19.923822 0.47802915,19.969519 C 0.47802915,19.987074 0.5183851,20.018719 0.56803975,20.040128 C 0.6176932,20.061537 0.68495392,20.09272 0.71805741,20.110737 C 0.77408961,20.141234 0.78208495,20.137741 0.84932284,20.066142 C 0.89041214,20.022387 0.96771204,19.976441 1.029344,19.95837 C 1.0889286,19.940902 1.1594177,19.914903 1.1831121,19.902627 C 1.2068089,19.890348 1.3099719,19.878672 1.4118891,19.876613 C 1.5916943,19.872977 1.6005501,19.871895 1.6931722,19.783706 C 1.808891,19.673528 1.8666262,19.66549 2.124473,19.716814 C 2.2490777,19.741617 2.2674146,19.738567 2.3082446,19.701949 C 2.3586206,19.656777 2.4479927,19.665534 2.7507967,19.75026 C 2.8912277,19.789553 2.8902316,19.790216 2.9495702,19.735395 C 2.9972986,19.6913 3.0363536,19.679653 3.1445931,19.679651 C 3.2610572,19.679651 3.2833931,19.672376 3.2908603,19.63134 C 3.3058525,19.548953 3.3625904,19.524066 3.508386,19.538434 C 3.6749872,19.554853 3.7838508,19.511118 4.0597009,19.315459 C 4.3712132,19.0945 4.6529859,18.837428 4.8585449,18.587073 C 4.9048812,18.530641 5.0063219,18.435223 5.0835714,18.37153 C 5.2159422,18.26239 5.412601,18.002424 5.5073714,17.810376 C 5.6165998,17.589022 5.7840615,17.288646 5.8299093,17.238073 C 5.8578282,17.207277 5.9185806,17.165147 5.9649252,17.141451 C 6.048287,17.098826 6.2537104,16.889228 6.2537092,16.847867 C 6.2537092,16.836087 6.2740684,16.795004 6.2949641,16.75496 C 6.315861,16.71492 6.3325141,16.635202 6.336219,16.580297 C 6.3399238,16.525394 6.3603262,16.43906 6.3774738,16.387051 C 6.3946214,16.335042 6.4205757,16.250006 6.4374809,16.197523 C 6.4543861,16.145041 6.4750981,16.016335 6.4824862,15.911371 C 6.4898742,15.806407 6.5041607,15.69562 6.5124897,15.666098 C 6.523345,15.627623 6.5158741,15.614071 6.4899871,15.614071 C 6.4701247,15.614071 6.4458639,15.636579 6.4374809,15.666098 C 6.4231368,15.716612 6.4196468,15.717181 6.3887251,15.677247 C 6.3602458,15.64047 6.3675726,15.619929 6.4224791,15.513732 C 6.4770711,15.408141 6.5051424,15.380207 6.6400047,15.313054 C 6.8230719,15.221901 6.9744133,15.154786 7.1088099,15.104944 C 7.1617746,15.0853 7.2588684,15.047239 7.3225851,15.023187 C 7.4724408,14.966613 7.5975483,14.819867 7.6151196,14.681291 C 7.6224728,14.623296 7.615788,14.569932 7.6001178,14.551223 C 7.5652909,14.509641 7.594866,14.285329 7.6451231,14.209327 C 7.6727431,14.167554 7.6771945,14.148201 7.6563744,14.12757 C 7.6410138,14.11235 7.6263709,14.027482 7.6263709,13.938041 C 7.6263709,13.809616 7.6187164,13.77486 7.585116,13.755945 C 7.5495642,13.73593 7.5484697,13.722723 7.5738647,13.681619 C 7.5904158,13.65483 7.6042895,13.602673 7.6038682,13.566416 C 7.6031733,13.506507 7.5991769,13.506184 7.5701143,13.544118 C 7.5267952,13.600666 7.5063567,13.594851 7.5063567,13.529253 C 7.5063567,13.499076 7.4957463,13.462993 7.4801037,13.447496 C 7.4644622,13.431996 7.4411063,13.351118 7.4313479,13.269115 C 7.4176255,13.15379 7.4018952,13.110985 7.3563391,13.072154 C 7.3077826,13.030767 7.2951619,12.997203 7.2925816,12.886341 L 7.2925816,12.752556 L 7.4163461,12.655934 C 7.4857911,12.6042 7.605402,12.505839 7.6826275,12.432959 C 7.7742979,12.346445 7.8507181,12.294195 7.9039036,12.284308 C 7.9585628,12.274149 7.9910326,12.251752 8.001415,12.217416 C 8.0099264,12.189271 8.0522458,12.129552 8.0951761,12.083631 C 8.1381051,12.037709 8.2127623,11.946012 8.2601955,11.882953 C 8.3427892,11.773148 8.525668,11.631162 8.5827335,11.630248 C 8.5976621,11.63001 8.6225062,11.612767 8.6389901,11.593085 C 8.6554753,11.573404 8.6849483,11.556333 8.7064981,11.555923 C 8.7280502,11.555513 8.8015601,11.528731 8.8677671,11.496463 C 8.9339729,11.46419 9.0161417,11.437124 9.0515387,11.437003 C 9.0869345,11.436885 9.1453754,11.411717 9.1828042,11.381259 C 9.220233,11.3508 9.3171324,11.288122 9.3965793,11.240041 C 9.5465394,11.149284 9.6057256,11.085161 9.6366076,10.98362 C 9.646582,10.950818 9.6910352,10.888325 9.7341191,10.842402 C 9.8205473,10.750277 9.8613348,10.675889 9.9328928,10.493075 C 9.9856238,10.358356 9.9801778,10.262833 9.9028888,10.09172 C 9.8685148,10.015623 9.8567528,9.9253423 9.8541328,9.6494858 C 9.8523248,9.4592398 9.8397855,9.2273147 9.8241297,9.1329266 C 9.8005001,8.9904651 9.8009706,8.9319921 9.8316306,8.7873151 C 9.8519438,8.6914572 9.8691178,8.5899637 9.8691348,8.56434 C 9.8691738,8.5003431 9.7437298,8.3311341 9.6853633,8.315351 C 9.54144,8.2764345 9.4844045,8.1839872 9.4678377,7.9697395 C 9.464949,7.9323689 9.420701,7.8252219 9.3703262,7.7281831 L 9.2803156,7.549803 L 9.3290714,7.4494642 C 9.3753452,7.3591741 9.3790201,7.3457254 9.3478236,7.285949 C 9.3001972,7.1946886 9.3060119,7.1122472 9.3628254,7.0406764 C 9.3893077,7.0073169 9.4078307,6.9612568 9.4078307,6.9366213 C 9.4078307,6.9119858 9.3415625,6.8290759 9.257813,6.7508087 C 9.0888655,6.5929256 9.0464261,6.4933217 9.1040449,6.3828996 C 9.1715276,6.2535776 9.2165593,6.1384701 9.2165581,6.0893157 C 9.2165581,6.0614515 9.2588415,5.9851833 9.3103192,5.9183681 C 9.4047427,5.7958078 9.5127494,5.579711 9.5428466,5.4575527 C 9.5518212,5.4211227 9.5867645,5.3608552 9.6178554,5.3237676 C 9.6541585,5.2804593 9.6741108,5.2266931 9.674112,5.1714013 C 9.674112,5.0715512 9.7522004,4.9744399 9.8316306,4.9744399 C 9.9284688,4.9744399 10.397946,4.5244796 10.397947,4.431867 C 10.397947,4.393558 10.740396,4.0002762 11.058025,3.6737514 C 11.215552,3.5118132 11.622887,3.1607302 11.684349,3.1348948 C 11.71083,3.1237638 11.804555,3.0722167 11.890623,3.0196909 C 11.97669,2.9671651 12.084307,2.9042255 12.130651,2.8784733 C 12.236976,2.8193915 12.479008,2.6129331 12.546951,2.5254293 C 12.575335,2.4888733 12.676632,2.379198 12.771977,2.2801566 C 13.043283,1.9983327 13.168384,1.8486599 13.207028,1.756165 C 13.226642,1.709213 13.276416,1.6265504 13.319541,1.5740686 C 13.455928,1.408099 13.597075,1.1758088 13.597074,1.1169695 C 13.597074,1.0582872 13.665533,0.92207139 13.795848,0.71561422 C 13.837254,0.65001196 13.891549,0.54372713 13.915862,0.4814903 C 13.940172,0.41925466 14.001578,0.32594877 14.054628,0.27338015 C 14.11246,0.21607613 14.152141,0.15462417 14.15214,0.12101379 C 14.15214,0.090180188 14.18308,0.023532618 14.219647,-0.027636322 C 14.332647,-0.18576079 14.365199,-0.28032604 14.380916,-0.47358665 C 14.394723,-0.64338903 14.40162,-0.66124013 14.455925,-0.68169683 C 14.494051,-0.69606113 14.532147,-0.69696613 14.560938,-0.68169683 C 14.620983,-0.64985473 14.624165,-0.64769993 14.628446,-0.70399433 C 14.630863,-0.73577923 14.610445,-0.76019123 14.572189,-0.77460313 C 14.539861,-0.78678173 14.510084,-0.81405723 14.508431,-0.83406313 C 14.493083,-1.0195689 14.500143,-1.1376911 14.530934,-1.2242697 C 14.573602,-1.3442291 14.56509,-1.3592178 14.41467,-1.3989335 C 14.287304,-1.432563 14.231568,-1.419018 14.204646,-1.346906 C 14.184411,-1.2927082 14.052959,-1.2324597 13.912111,-1.2131209 C 13.865768,-1.2067587 13.783018,-1.1791193 13.72834,-1.1536609 C 13.629622,-1.1076959 13.597333,-1.1028285 13.375798,-1.1090658 C 13.312383,-1.1108508 13.245564,-1.10297 13.229531,-1.0904846 C 13.184836,-1.0556719 12.978773,-1.0365377 12.914494,-1.0607545 C 12.874601,-1.0757825 12.837966,-1.0701742 12.790729,-1.0458895 C 12.753434,-1.0267172 12.708991,-1.0175937 12.693218,-1.023592 C 12.677444,-1.0295903 12.65499,-1.0100518 12.640712,-0.97899703 C 12.607732,-0.90727393 12.494863,-0.88175723 12.265667,-0.90095573 C 12.100869,-0.91475873 12.085661,-0.91387163 11.901875,-0.82291443 C 11.660877,-0.70364353 11.557856,-0.69902343 11.403066,-0.80061693 C 11.272025,-0.88662343 11.262262,-0.89603713 11.178039,-1.0570383 C 11.142005,-1.1259216 11.099442,-1.18292 11.084278,-1.1833909 C 11.069111,-1.183863 11.025851,-1.2074829 10.986767,-1.2391347 C 10.917018,-1.2956229 10.916639,-1.2988682 10.960514,-1.346906 C 10.985099,-1.3738248 11.028125,-1.3952173 11.054275,-1.3952173 C 11.096035,-1.3952173 11.098487,-1.4065183 11.088029,-1.4955561 C 11.071917,-1.6327304 10.937701,-1.8486001 10.866753,-1.8486001 C 10.828214,-1.8486001 10.795839,-1.8786691 10.754239,-1.9563714 C 10.72263,-2.0154141 10.689696,-2.0641428 10.679231,-2.0641428 C 10.668764,-2.0641428 10.614977,-2.1072204 10.559216,-2.1607653 C 10.503451,-2.2143103 10.429091,-2.2726584 10.394197,-2.2908342 C 10.359307,-2.3090111 10.303681,-2.3721161 10.270432,-2.4283355 C 10.194071,-2.5574459 10.139339,-2.6018328 10.045406,-2.6215807 C 10.003325,-2.6304283 9.9475858,-2.6672591 9.9178908,-2.7070545 C 9.8889698,-2.7458189 9.8488968,-2.7776633 9.8278801,-2.7776633 C 9.8068656,-2.7776633 9.746981,-2.8228602 9.6966147,-2.8742859 C 9.6362764,-2.9358938 9.5669466,-2.979252 9.4903404,-3.0006385 C 9.3944287,-3.0274131 9.3677123,-3.0443171 9.3478236,-3.1046935 C 9.3345632,-3.1449464 9.3096135,-3.1946332 9.291567,-3.2161811 C 9.2735216,-3.2377278 9.253154,-3.328169 9.2465617,-3.4168588 C 9.2399681,-3.5055497 9.2219456,-3.5985351 9.2053068,-3.6249689 C 9.1886656,-3.6514024 9.1665398,-3.7130254 9.1565511,-3.758754 C 9.1155074,-3.9466632 8.9399724,-4.2219423 8.8377635,-4.2604481 C 8.8046804,-4.2729115 8.7727855,-4.3035347 8.7665051,-4.3273407 C 8.7602212,-4.3511471 8.722778,-4.3863991 8.6839954,-4.4090982 C 8.6452153,-4.4317973 8.6164875,-4.460315 8.6164875,-4.4722745 C 8.6164875,-4.4842341 8.5872364,-4.5101035 8.55273,-4.5280183 C 8.4572395,-4.5775941 8.3939393,-4.7717761 8.3839601,-5.0557262 C 8.3794044,-5.1853457 8.3699508,-5.3329514 8.3614574,-5.3827564 C 8.352442,-5.435639 8.3565549,-5.4940607 8.3727088,-5.5239741 C 8.3947194,-5.5647267 8.3954862,-5.5829839 8.3652079,-5.6243129 C 8.3442774,-5.6528845 8.3070694,-5.6998635 8.2864486,-5.728368 C 8.2658266,-5.7568729 8.2451901,-5.8422038 8.2376929,-5.9141806 C 8.2260851,-6.0256364 8.2116462,-6.0502428 8.1476823,-6.096277 C 8.106377,-6.126005 8.0379785,-6.1910138 7.9939142,-6.2412108 C 7.9498486,-6.2914075 7.8935475,-6.3341169 7.8701496,-6.3341171 C 7.8162404,-6.3341171 7.7687928,-6.3874115 7.6901284,-6.5347948 C 7.6111255,-6.6828128 7.6058197,-6.8185529 7.6788771,-6.8692575 C 7.724318,-6.900795 7.7292362,-6.913457 7.7051302,-6.9658801 C 7.6898488,-6.9991133 7.6619587,-7.0253398 7.6451231,-7.0253401 C 7.5940439,-7.0253413 7.4901896,-7.1778719 7.3863426,-7.4006817 C 7.2670546,-7.656625 7.2979678,-7.5984377 7.0525533,-8.0361609 C 6.9798511,-8.1658321 6.9271769,-8.3533709 6.9287887,-8.4746787 C 6.9291788,-8.5040545 6.9114839,-8.5303238 6.8875339,-8.537855 C 6.8227106,-8.5582422 6.7572405,-8.6831973 6.7750206,-8.7533977 C 6.7877001,-8.8034585 6.7661144,-8.8420356 6.6437552,-8.9763728 C 6.5629557,-9.0650817 6.4974879,-9.1473732 6.4974879,-9.1621855 C 6.4974879,-9.1769992 6.4726642,-9.220222 6.4449818,-9.2550918 C 6.4173017,-9.2899626 6.3933517,-9.3410749 6.3887251,-9.3702956 C 6.3712991,-9.4803482 6.3320305,-9.6033285 6.3062154,-9.6341495 C 6.2861659,-9.6580885 6.2864287,-9.6748885 6.3137163,-9.6973255 C 6.371862,-9.7451445 6.3579031,-9.8035145 6.2574597,-9.9165845 C 6.20585,-9.9746825 6.1473827,-10.056963 6.1261942,-10.102398 C 6.1050045,-10.147831 6.0668856,-10.216379 6.0436845,-10.251048 C 6.0204858,-10.285715 5.9643696,-10.373663 5.9199199,-10.448009 C 5.7997678,-10.648971 5.6798665,-10.74157 5.6198846,-10.682133 C 5.6111296,-10.67346 5.5692314,-10.664033 5.5261236,-10.659836 C 5.4830145,-10.655639 5.4219681,-10.648501 5.3911077,-10.644971 C 5.3602436,-10.64144 5.3217887,-10.619621 5.3048475,-10.59666 C 5.2879063,-10.5737 5.252801,-10.555781 5.2260882,-10.555781 C 5.1993779,-10.555781 5.1647406,-10.539406 5.147329,-10.518618 C 5.0934294,-10.454264 4.9146468,-10.343181 4.8435432,-10.329089 C 4.7976738,-10.32 4.7360285,-10.331997 4.6522707,-10.373684 C 4.5843175,-10.407503 4.4931259,-10.436861 4.4497468,-10.436861 C 4.4063677,-10.436861 4.3491882,-10.453216 4.3259822,-10.474023 C 4.3027775,-10.494831 4.2416303,-10.515484 4.1909663,-10.518618 C 4.1403012,-10.521753 4.050137,-10.545734 3.9884425,-10.574362 C 3.9267468,-10.602989 3.8237603,-10.6341 3.7596655,-10.641255 C 3.6955696,-10.648409 3.5859307,-10.671389 3.5158868,-10.693282 C 3.3964116,-10.730627 3.3815286,-10.731789 3.2721081,-10.693282 C 3.2079618,-10.670708 3.1442979,-10.652404 3.1295914,-10.652403 C 3.1148848,-10.652403 3.0785241,-10.698083 3.0508321,-10.756458 C 2.9800717,-10.905623 2.9513764,-10.926502 2.7845507,-10.919973 C 2.6747186,-10.915677 2.6198169,-10.923928 2.5595242,-10.960852 C 2.5160395,-10.987481 2.4434682,-11.009164 2.3945048,-11.009164 C 2.270613,-11.009164 2.2111748,-11.046607 2.2107331,-11.124367 C 2.2102303,-11.212511 2.1866019,-11.241453 2.1019703,-11.261869 C 2.0623789,-11.271417 1.9706113,-11.305343 1.8994465,-11.336194 C 1.7600213,-11.39664 1.4976932,-11.413783 1.4493935,-11.365924 C 1.4351034,-11.351764 1.3797097,-11.329654 1.3256289,-11.317613 C 1.1965669,-11.288878 0.95808684,-11.180495 0.95808564,-11.150381 C 0.95808564,-11.137363 0.93583384,-11.115728 0.90557954,-11.10207 C 0.87532514,-11.08841 0.82422312,-11.030198 0.79306625,-10.972001 C 0.7450894,-10.88239 0.73842261,-10.847059 0.75181139,-10.734161 C 0.76050881,-10.660843 0.7816637,-10.569703 0.80056713,-10.533483 C 0.84226724,-10.453578 0.82769873,-10.385518 0.74056006,-10.258481 C 0.6720872,-10.158658 0.47312897,-10.031789 0.38426811,-10.031789 C 0.33762942,-10.031789 0.036073514,-10.224285 0.0054735042,-10.273346 C -0.034877646,-10.33804 -0.54536376,-10.506683 -0.69960953,-10.507469 C -0.87084929,-10.508343 -0.98828072,-10.544776 -1.0671528,-10.618957 C -1.1580516,-10.704451 -1.2546749,-10.88997 -1.2546749,-10.979434 C -1.2546749,-11.074197 -1.3224061,-11.125015 -1.4797014,-11.150381 C -1.5651503,-11.164162 -1.650892,-11.200284 -1.7159793,-11.247004 C -1.7873036,-11.2982 -1.8429422,-11.321329 -1.9072518,-11.321329 C -1.9577813,-11.321329 -2.0371863,-11.336596 -2.0835225,-11.358491 C -2.1625638,-11.395841 -2.1769751,-11.397965 -2.308549,-11.358491 C -2.4663424,-11.311152 -2.5958161,-11.328282 -2.7060958,-11.414235 C -2.7391285,-11.439982 -2.8176718,-11.47838 -2.8823666,-11.499709 C -3.0468808,-11.553946 -3.1111435,-11.596231 -3.1111435,-11.659508 C -3.1111435,-11.689381 -3.1215272,-11.725084 -3.1336462,-11.737549 C -3.1457664,-11.750013 -3.1592176,-11.786506 -3.1636497,-11.819307 C -3.1750391,-11.903616 -3.2578512,-11.912911 -3.3099169,-11.834172 C -3.3592776,-11.759523 -3.3903804,-11.757806 -3.4749364,-11.826739 C -3.5189072,-11.862585 -3.5474729,-11.910545 -3.5574461,-11.975389 L -3.5724479,-12.075728 L -3.4111789,-12.190932 C -3.2783676,-12.287435 -3.2329927,-12.334422 -3.174901,-12.454786 C -3.1179303,-12.572831 -3.1126965,-12.612958 -3.1336462,-12.651747 C -3.1479915,-12.678307 -3.1561488,-12.727022 -3.1561488,-12.759519 C -3.1561488,-12.812407 -3.2735203,-12.941615 -3.3211683,-12.941615 C -3.3301705,-12.941615 -3.3528844,-12.987855 -3.369924,-13.041954 C -3.397172,-13.128463 -3.3946337,-13.143798 -3.3586727,-13.183171 C -3.3361832,-13.207795 -3.3048944,-13.227766 -3.2874143,-13.227766 C -3.2699366,-13.227766 -3.2316821,-13.277292 -3.2049046,-13.335538 C -3.1781246,-13.393784 -3.1469222,-13.446328 -3.1336462,-13.454458 C -3.098344,-13.476078 -3.1054141,-13.552056 -3.1448975,-13.584527 C -3.1721635,-13.606948 -3.201675,-13.59647 -3.2911647,-13.528783 C -3.3528364,-13.482137 -3.4093079,-13.443309 -3.4186798,-13.443309 C -3.447992,-13.443309 -3.5168813,-13.573287 -3.5124408,-13.621689 C -3.5094764,-13.654012 -3.5349999,-13.682765 -3.6024514,-13.714596 C -3.655416,-13.739589 -3.7089867,-13.770351 -3.7187151,-13.785204 C -3.7250506,-13.794876 -3.7270693,-13.799988 -3.7299664,-13.800069 z M 13.683334,9.0994804 C 13.651035,9.0987966 13.605457,9.1424117 13.593324,9.2072517 C 13.587941,9.2360137 13.555749,9.2616434 13.507064,9.2741442 C 13.417445,9.2971553 13.415543,9.3035817 13.465809,9.4227944 C 13.496223,9.4949206 13.500393,9.5254057 13.47706,9.5974582 C 13.461405,9.6457957 13.443887,9.6999769 13.439556,9.7163783 C 13.428131,9.7595939 13.307923,9.7519854 13.255784,9.7052296 C 13.221019,9.6740535 13.207122,9.6716929 13.184526,9.6940808 C 13.161932,9.7164699 13.161368,9.7326561 13.184526,9.7646896 C 13.232468,9.8310006 13.243725,9.8658288 13.22578,9.8836097 C 13.216531,9.8927749 13.197433,9.8804488 13.184526,9.8575959 C 13.12858,9.7585367 12.987834,9.8576292 13.042009,9.9579347 C 13.079745,10.027801 13.075213,10.089727 13.023257,10.136315 C 12.99751,10.159404 12.971049,10.213967 12.967,10.255235 C 12.960565,10.320897 12.950269,10.330372 12.88074,10.336992 C 12.820225,10.342753 12.794364,10.358856 12.775727,10.407601 C 12.750185,10.474414 12.663657,10.578547 12.633211,10.578548 C 12.62351,10.578548 12.54005,10.627089 12.449439,10.68632 C 12.358831,10.74555 12.243624,10.805951 12.190659,10.820105 C 12.137694,10.834259 12.074258,10.863511 12.051892,10.883281 C 12.029525,10.903055 11.974422,10.916729 11.928128,10.916727 C 11.876007,10.916727 11.826245,10.936975 11.800613,10.965039 C 11.770949,10.997521 11.729274,11.009635 11.646845,11.009634 C 11.551634,11.009634 11.528687,11.017026 11.515579,11.057945 C 11.506871,11.085133 11.507532,11.133954 11.515579,11.165716 C 11.526322,11.208124 11.499416,11.272258 11.418068,11.410989 L 11.305554,11.600518 L 11.331807,11.816061 C 11.34627,11.933931 11.375807,12.066505 11.395565,12.113361 C 11.415323,12.160217 11.432654,12.233813 11.433069,12.276876 C 11.433482,12.319936 11.458048,12.397388 11.489326,12.447824 C 11.537042,12.524752 11.542151,12.554041 11.52308,12.622487 C 11.510578,12.667358 11.507866,12.714176 11.515579,12.726543 C 11.53666,12.760337 11.465465,12.909771 11.376813,13.020126 C 11.333592,13.073927 11.28879,13.16571 11.275551,13.22452 C 11.257261,13.305757 11.232911,13.339372 11.178039,13.369454 C 11.138316,13.391231 11.10347,13.429748 11.09928,13.454928 C 11.095092,13.480107 11.065892,13.556557 11.035523,13.622159 C 10.989822,13.720879 10.983074,13.761279 10.998018,13.86 C 11.021731,14.016608 11.057191,14.11921 11.118032,14.21676 C 11.160337,14.284585 11.169284,14.339752 11.174289,14.595818 C 11.178169,14.794294 11.186907,14.896729 11.204292,14.896834 C 11.25498,14.897143 11.309072,14.980774 11.316806,15.075214 C 11.322798,15.148411 11.33605,15.172846 11.373062,15.179269 C 11.399543,15.183861 11.443993,15.214564 11.474324,15.246162 C 11.510422,15.283768 11.558324,15.301906 11.60934,15.301906 C 11.666322,15.301906 11.704049,15.322246 11.751857,15.376231 C 11.814087,15.446504 11.820734,15.448143 11.939379,15.431974 C 12.017615,15.421313 12.101008,15.393029 12.160655,15.350217 C 12.255457,15.282168 12.325005,15.259456 12.494444,15.246162 C 12.657715,15.233353 12.73668,15.145999 12.824483,14.881969 C 12.867293,14.753248 12.91365,14.638012 12.925745,14.625548 C 12.93784,14.613082 12.947937,14.573532 12.948248,14.540074 C 12.948562,14.506618 12.973106,14.400638 13.000754,14.302234 C 13.028404,14.20383 13.057834,14.066818 13.068262,14.001217 C 13.078691,13.935615 13.124103,13.793144 13.169524,13.681619 C 13.214944,13.570094 13.273166,13.397249 13.297039,13.298845 C 13.357988,13.047617 13.404196,12.897388 13.428304,12.882625 C 13.439641,12.875683 13.461932,12.809187 13.47706,12.733975 C 13.508247,12.578907 13.578954,12.368675 13.660832,12.18397 C 13.727097,12.034485 13.769913,11.833088 13.777095,11.652545 C 13.783963,11.480001 13.812256,11.366683 13.852104,11.351529 C 13.922973,11.324579 13.959639,11.052853 13.90086,10.987336 C 13.882273,10.966623 13.864194,10.901163 13.859605,10.842402 C 13.853002,10.757835 13.858083,10.733363 13.889609,10.727199 C 13.917052,10.721833 13.937611,10.746676 13.957117,10.80524 C 13.986753,10.894221 14.050564,10.944482 14.095883,10.916727 C 14.139334,10.890116 14.219261,10.655132 14.204646,10.59713 C 14.19722,10.567659 14.177445,10.522673 14.15964,10.496791 C 14.141838,10.470912 14.129638,10.425561 14.129637,10.396453 C 14.129637,10.367344 14.116625,10.337668 14.103384,10.32956 C 14.090144,10.321451 14.08088,10.246252 14.080881,10.162329 C 14.080881,9.9755825 13.977275,9.5962857 13.89711,9.4896869 C 13.865698,9.447921 13.837101,9.4005028 13.837102,9.3856318 C 13.837102,9.3707609 13.810199,9.3245818 13.777095,9.2815768 C 13.743992,9.2385717 13.717087,9.1797919 13.717088,9.1515079 C 13.717088,9.1158033 13.702714,9.0998906 13.683334,9.0994804 z"
   id="africa"
   transform="matrix(0.8870043,0,0,0.8833837,0.7186975,8.9201351e-3)" />
 /&gt;
<rect
   style="opacity:0;fill:#000000;fill-opacity:1;stroke:#4a4a4a;stroke-width:0.88519216;stroke-linecap:round;stroke-linejoin:round;stroke-miterlimit:4;stroke-dasharray:none;stroke-opacity:1"
   id="rect3171"
   width="2.6264544"
   height="2.4780636"
   x="-1.5621707"
   y="-3.427098"
   rx="14.61783" />
<rect
   style="opacity:0;fill:#e80000;fill-opacity:1;stroke:#4a4a4a;stroke-width:0.88519216;stroke-linecap:round;stroke-linejoin:round;stroke-miterlimit:4;stroke-dasharray:none;stroke-opacity:1"
   id="rect3177"
   width="3.1793921"
   height="4.267776"
   x="-2.2533429"
   y="-4.3907905"
   rx="14.61783" />
<rect
   style="opacity:0;fill:#e8ac00;fill-opacity:1;stroke:#4a4a4a;stroke-width:1;stroke-linecap:round;stroke-linejoin:round;stroke-miterlimit:4;stroke-dasharray:none;stroke-opacity:1"
   id="rect3179"
   width="7.3246722"
   height="8.727272"
   x="-35.922077"
   y="0.94155842"
   rx="3.6623361" />
<path
   style="opacity:0;fill:#e8ac00;fill-opacity:1;stroke:#4a4a4a;stroke-width:0.88519216;stroke-linecap:round;stroke-linejoin:round;stroke-miterlimit:4;stroke-dasharray:none;stroke-opacity:1"
   id="path3181"
   d="M -0.98993227,-3.7093544 C -1.1275242,-3.4439022 -1.2402964,-3.1708277 -1.313078,-2.8810183 C -1.3653022,-2.630046 -1.4059727,-2.3725707 -1.3151741,-2.1268955 C -1.2404997,-1.9511669 -1.1090429,-1.8025333 -0.96929197,-1.674078 C -0.84386687,-1.520207 -0.66079938,-1.4355778 -0.51050137,-1.3096846 C -0.33562417,-1.2000031 -0.16440475,-1.0820736 0.017570177,-0.98307646 C 0.053979587,-0.96799306 0.091325547,-0.95498066 0.1267985,-0.93782606 C 0.31474041,-0.84693826 0.15032063,-0.90999796 0.33485041,-0.82817136 C 0.44212198,-0.78060346 0.55098348,-0.75590576 0.66555598,-0.73347096 C 0.85324238,-0.72282266 1.1124769,-0.65590546 1.2932896,-0.71691806 C 1.3258562,-0.72790716 1.3537372,-0.74957796 1.3839609,-0.76590796 C 1.8041677,-0.99978166 0.91717348,-0.49392656 0.67771688,-0.36903936 C 0.65012738,-0.35465026 0.72300818,-0.41172606 0.74380068,-0.43481766 C 0.81086478,-0.50929696 0.86353498,-0.58980446 0.91211748,-0.67680686 C 1.0003394,-0.87396746 1.0647723,-1.078368 1.1325759,-1.2827173 C 1.2274854,-1.4952475 1.264534,-1.7217684 1.2862576,-1.9513594 C 1.2913923,-2.1702546 1.2069509,-2.3656639 1.1350173,-2.5667569 C 1.060998,-2.7505825 0.93140418,-2.8956774 0.80918428,-3.0476602 C 0.78700368,-3.0690117 0.76677848,-3.0925823 0.74264238,-3.1117148 C 0.66803938,-3.1708518 0.58250238,-3.2189046 0.50603598,-3.2756607 C 0.40291418,-3.3629191 0.45528218,-3.3221926 0.34927502,-3.3982764 C 0.2662597,-3.4795645 0.15985075,-3.5191995 0.059402547,-3.5714889 C -0.044566753,-3.6256112 -0.13825085,-3.6820524 -0.24762284,-3.7260256 C -0.39840007,-3.8334195 -0.57992298,-3.8691446 -0.74549757,-3.9430931 L 0.10322133,-4.5069653 C 0.27201599,-4.4404401 0.44495648,-4.3855897 0.60025538,-4.2887899 C 0.81355218,-4.1928251 1.0232219,-4.0806483 1.2120567,-3.9428189 C 1.3727762,-3.8225777 1.5428605,-3.7106568 1.6858031,-3.5699281 C 1.8163693,-3.4098665 1.9480233,-3.2519259 2.0275413,-3.0585356 C 2.1049051,-2.8405372 2.1924778,-2.6411573 2.1961647,-2.4036257 C 2.1788927,-2.1677701 2.153782,-1.9303368 2.0575252,-1.7112138 C 2.0134918,-1.6076262 1.9956603,-1.5021734 1.9576915,-1.39656 C 1.9457159,-1.3632489 1.9309356,-1.3310051 1.9175578,-1.2982276 C 1.9028321,-1.2674514 1.8854193,-1.237813 1.8733809,-1.2058988 C 1.8600133,-1.1704608 1.8521864,-1.1331884 1.8415892,-1.0968332 C 1.6171558,-0.57133046 1.1282443,-0.36735106 0.58120908,-0.13834996 C 0.33490377,-0.075094965 0.077066197,-0.11595756 -0.17077576,-0.15553216 C -0.40796277,-0.21308336 -0.61971348,-0.31837036 -0.83577037,-0.42945716 C -1.020642,-0.53448146 -1.2020643,-0.64771776 -1.3760403,-0.76932186 C -1.5318756,-0.89140876 -1.7114541,-0.98560766 -1.8390299,-1.1403686 C -1.9861226,-1.2838716 -2.1276481,-1.4420601 -2.2070122,-1.6335825 C -2.3073541,-1.8979395 -2.2812396,-2.1710018 -2.2258736,-2.4442184 C -2.1901489,-2.6020462 -2.1497936,-2.7542802 -2.0899172,-2.9051 C -1.9852125,-3.1688355 -2.0709887,-2.9359983 -1.9653512,-3.1795017 C -1.9498947,-3.2151303 -1.9378377,-3.252128 -1.924081,-3.2884412 L -0.98993227,-3.7093544 z" />
<path
   style="fill:url(#linearGradient3198);fill-opacity:1.0;stroke:#000000;stroke-width:0.70863240999999999;stroke-miterlimit:4;stroke-dasharray:none;stroke-opacity:1"
   d="M -3.3982107,-12.562269 C -3.4007804,-12.562342 -3.4014208,-12.557523 -3.4015379,-12.549138 C -3.4017171,-12.536263 -3.4689901,-12.505813 -3.5512367,-12.480198 C -3.6360583,-12.45378 -3.7126343,-12.416214 -3.724223,-12.394842 C -3.7475742,-12.351786 -3.9189239,-12.299845 -3.9703959,-12.319337 C -3.9892714,-12.326484 -4.021513,-12.321145 -4.0435826,-12.309488 C -4.073496,-12.29369 -4.1059842,-12.297971 -4.1666687,-12.329185 C -4.3030935,-12.399359 -4.3762997,-12.405054 -4.4161679,-12.348883 C -4.4491032,-12.302479 -4.452198,-12.304177 -4.5192945,-12.335751 C -4.6591183,-12.40155 -4.72484,-12.403028 -4.7787735,-12.3456 C -4.8089209,-12.313497 -4.8639914,-12.286271 -4.9218198,-12.276659 C -4.9735356,-12.268065 -5.0368553,-12.245832 -5.064866,-12.224133 C -5.1306871,-12.173141 -5.1328832,-12.172618 -5.2278726,-12.247114 C -5.305787,-12.308215 -5.3156975,-12.309488 -5.5305982,-12.309488 C -5.6830911,-12.309488 -5.7722882,-12.300903 -5.8133646,-12.279943 C -5.8494062,-12.26155 -5.9138515,-12.252203 -5.973044,-12.256963 C -6.0442039,-12.262684 -6.0840454,-12.254617 -6.1194165,-12.227417 C -6.1463069,-12.206736 -6.2170455,-12.184478 -6.2757696,-12.178174 C -6.7724956,-12.124855 -6.8272051,-12.116096 -6.9011813,-12.066555 C -6.9426496,-12.038786 -6.9875639,-12.014029 -7.0043079,-12.014029 C -7.0210501,-12.014029 -7.0896626,-11.961406 -7.1540076,-11.895845 C -7.2425502,-11.805631 -7.2750367,-11.782198 -7.2937267,-11.800642 C -7.3285842,-11.835041 -7.3955752,-11.831584 -7.4101602,-11.794076 C -7.4181016,-11.77365 -7.4508684,-11.761247 -7.5033064,-11.761247 C -7.5732732,-11.761247 -7.5963415,-11.747228 -7.6762926,-11.659478 C -7.7272971,-11.603499 -7.812253,-11.533252 -7.8625855,-11.5019 C -7.946748,-11.449473 -7.9672927,-11.446626 -8.118739,-11.45594 C -8.2827898,-11.46603 -8.3323625,-11.4909 -8.3615837,-11.577407 C -8.3672501,-11.594183 -8.3938102,-11.585547 -8.4380963,-11.554427 C -8.5167337,-11.499169 -8.526251,-11.498213 -8.5744898,-11.541295 C -8.6011941,-11.565142 -8.6229596,-11.568731 -8.6510034,-11.554427 C -8.7261029,-11.516119 -8.9100745,-11.484829 -8.9736884,-11.498617 C -9.0654922,-11.518515 -9.251498,-11.67068 -9.2664348,-11.738267 C -9.2909115,-11.84904 -9.3487468,-11.931958 -9.3995004,-11.931958 C -9.4284034,-11.931958 -9.4460734,-11.917953 -9.4460734,-11.899128 C -9.4460734,-11.881742 -9.4330584,-11.8663 -9.4161344,-11.8663 C -9.3469557,-11.8663 -9.3661468,-11.824273 -9.4460734,-11.800642 C -9.5018344,-11.784155 -9.5344554,-11.760484 -9.5425474,-11.731701 C -9.5493814,-11.707392 -9.5626994,-11.669528 -9.5724874,-11.646347 C -9.5822764,-11.623165 -9.6243064,-11.517577 -9.6623074,-11.413262 C -9.7003064,-11.308948 -9.7408284,-11.210695 -9.7554524,-11.19331 C -9.7700754,-11.175924 -9.8015994,-11.115792 -9.8253134,-11.061995 C -9.8710994,-10.95812 -10.026404,-10.826683 -10.171285,-10.769818 C -10.212392,-10.753685 -10.275768,-10.725003 -10.311005,-10.704161 C -10.346239,-10.68332 -10.392205,-10.66481 -10.410804,-10.664767 C -10.444189,-10.664689 -10.506133,-10.609804 -10.720185,-10.389005 C -10.817173,-10.288958 -10.830884,-10.263207 -10.839944,-10.165769 C -10.847842,-10.080822 -10.865963,-10.035352 -10.92311,-9.9655131 C -11.023348,-9.8430141 -11.045047,-9.7817901 -11.056177,-9.5551541 C -11.064534,-9.3849941 -11.057959,-9.3566531 -11.02291,-9.3253521 C -10.970378,-9.2784371 -10.974657,-9.1979091 -11.03289,-9.1054001 C -11.058807,-9.0642297 -11.107435,-8.9846173 -11.14267,-8.928125 C -11.240318,-8.7715654 -11.337197,-8.6740794 -11.481989,-8.5834223 C -11.554428,-8.5380673 -11.648384,-8.4605159 -11.691569,-8.4127124 C -11.734753,-8.3649081 -11.78573,-8.3273573 -11.804675,-8.3273573 C -11.823621,-8.3273573 -11.878066,-8.3080227 -11.924435,-8.2846801 C -11.970802,-8.2613362 -12.065754,-8.236256 -12.137341,-8.228871 C -12.257742,-8.2164523 -12.272883,-8.2103896 -12.316981,-8.140234 C -12.3432,-8.0985223 -12.388617,-8.0062379 -12.41678,-7.9366953 C -12.505801,-7.7168762 -12.531466,-7.677359 -12.629686,-7.61169 C -12.682422,-7.5764332 -12.735018,-7.5462428 -12.746119,-7.5460325 C -12.789588,-7.5452066 -12.885188,-7.4303667 -12.885839,-7.3786056 C -12.886212,-7.3489002 -12.898535,-7.309184 -12.915779,-7.2866851 C -12.933022,-7.2641862 -12.949046,-7.2274419 -12.949046,-7.2078962 C -12.949046,-7.1883495 -12.964696,-7.1599505 -12.982313,-7.1455213 C -13.003361,-7.1282829 -13.012252,-7.0838055 -13.012252,-7.0109237 C -13.012252,-6.9499207 -13.023687,-6.8756484 -13.038865,-6.8467795 C -13.054042,-6.8179105 -13.153216,-6.7073471 -13.258425,-6.6005636 C -13.391287,-6.4657115 -13.448629,-6.3909853 -13.444717,-6.360914 C -13.44162,-6.3371015 -13.460121,-6.2837354 -13.484637,-6.2427305 C -13.509154,-6.2017247 -13.543594,-6.1249657 -13.56115,-6.0720201 C -13.622786,-5.8861659 -13.673534,-5.7995421 -13.717503,-5.7995413 C -13.740519,-5.7995413 -13.766632,-5.7804311 -13.777383,-5.7601468 C -13.801226,-5.7151676 -13.868537,-5.4345749 -13.877183,-5.3432216 C -13.880633,-5.3067688 -13.894854,-5.2575083 -13.907122,-5.2348867 C -13.923032,-5.2055492 -13.92136,-5.1865633 -13.903796,-5.1692291 C -13.864655,-5.1306025 -13.847242,-5.1400844 -13.847242,-5.198775 C -13.847242,-5.2693356 -13.802943,-5.2559065 -13.76075,-5.1725121 C -13.743133,-5.1376907 -13.691687,-5.0743062 -13.647644,-5.0313483 C -13.559194,-4.9450804 -13.545303,-4.8692684 -13.604397,-4.8048298 C -13.655584,-4.7490127 -13.669143,-4.5526163 -13.624357,-4.5159365 C -13.605488,-4.5004846 -13.587764,-4.4665682 -13.587764,-4.4404304 C -13.587764,-4.4142927 -13.575439,-4.3793526 -13.557824,-4.3649241 C -13.540206,-4.3504954 -13.524557,-4.3219927 -13.524557,-4.3025495 C -13.524557,-4.2831058 -13.513888,-4.2591912 -13.50127,-4.2467406 C -13.486772,-4.2324326 -13.48166,-4.1548599 -13.487964,-4.0366364 C -13.500629,-3.7991209 -13.520907,-3.716703 -13.567804,-3.6919343 C -13.592001,-3.6791558 -13.609566,-3.6356833 -13.617704,-3.5704679 C -13.659261,-3.2373997 -13.672997,-3.1640316 -13.714176,-3.0780363 C -13.762384,-2.9773625 -13.918834,-2.7801821 -13.960349,-2.7661629 C -14.088136,-2.7230117 -14.092309,-2.7186573 -14.053496,-2.6972225 C -14.032849,-2.6858202 -14.005592,-2.6833525 -13.993616,-2.6906567 C -13.963742,-2.708878 -13.858219,-2.5915769 -13.827283,-2.5068156 C -13.813351,-2.4686449 -13.776075,-2.3908486 -13.747443,-2.336106 C -13.697205,-2.2400496 -13.698568,-2.2384643 -13.737463,-2.2179224 C -13.772761,-2.1992799 -13.77755,-2.1683903 -13.777383,-1.988121 C -13.77722,-1.8095283 -13.772456,-1.776482 -13.734136,-1.7353395 C -13.709847,-1.7092614 -13.677132,-1.6893792 -13.660951,-1.6893792 C -13.644769,-1.6893792 -13.619192,-1.6627549 -13.607724,-1.6302874 C -13.596253,-1.5978189 -13.559664,-1.5555491 -13.524557,-1.5350839 C -13.44862,-1.4908171 -13.463137,-1.4477825 -13.547844,-1.4661436 C -13.617339,-1.4812059 -13.658893,-1.4404299 -13.604397,-1.4103346 C -13.582872,-1.3984469 -13.567804,-1.3647904 -13.567804,-1.321697 C -13.567804,-1.222804 -13.520307,-1.189616 -13.448044,-1.2363421 C -13.407692,-1.2624329 -13.385091,-1.2661391 -13.368204,-1.2494736 C -13.330982,-1.2127421 -13.306854,-1.2199413 -13.321631,-1.265888 C -13.344287,-1.3363306 -13.27699,-1.3427378 -13.195218,-1.2757366 C -13.154843,-1.2426525 -13.1162,-1.1975337 -13.108724,-1.1772503 C -13.10125,-1.1569668 -13.074823,-1.1411387 -13.048844,-1.1411387 C -13.014385,-1.1411387 -12.973465,-1.1037684 -12.902472,-0.99997496 C -12.829121,-0.89273256 -12.792006,-0.85395666 -12.749446,-0.84896256 C -12.619648,-0.83372996 -12.376934,-0.47316286 -12.403473,-0.33355086 C -12.419333,-0.25012686 -12.386236,-0.15820946 -12.320307,-0.10703226 C -12.270741,-0.068555865 -12.234146,0.017596215 -12.240467,0.080091725 C -12.24228,0.097994735 -12.209195,0.12935592 -12.163954,0.14903215 C -11.843164,0.28854653 -11.715124,0.35303275 -11.684916,0.39853081 C -11.666044,0.42695165 -11.604135,0.47535755 -11.548522,0.50358289 C -11.492912,0.53180833 -11.445087,0.56606154 -11.438743,0.58237199 C -11.432401,0.5986834 -11.376742,0.6345009 -11.315657,0.66116098 C -11.247151,0.69105779 -11.178544,0.74277072 -11.136017,0.79575898 C -11.098096,0.84300827 -11.056172,0.88111276 -11.046197,0.88111382 C -11.036222,0.88111382 -10.983747,0.92782836 -10.926438,0.98288292 C -10.869128,1.0379376 -10.774844,1.1032737 -10.716858,1.1306125 C -10.658872,1.1579502 -10.594755,1.1894269 -10.577137,1.1995528 C -10.501322,1.2431316 -10.366605,1.3039893 -10.340945,1.3046049 C -10.325618,1.3049737 -10.293884,1.3204174 -10.271085,1.3374337 C -10.225135,1.3717312 -10.097188,1.3776992 -10.078138,1.3472824 C -10.071439,1.3365839 -10.035916,1.3218851 -10.001626,1.3144536 C -9.9673384,1.3070212 -9.9291264,1.2884175 -9.9151324,1.2717762 C -9.9011394,1.2551359 -9.8631504,1.2389485 -9.8319664,1.2389475 C -9.8007824,1.2389475 -9.7586604,1.2279579 -9.7354934,1.2126844 C -9.6780734,1.1748289 -9.5108614,1.1153957 -9.4227874,1.1010666 C -9.0002201,1.0323142 -8.696171,1.0284798 -8.3782163,1.091218 C -8.2181512,1.1228018 -8.1156508,1.156241 -8.0854718,1.1831386 C -8.0280117,1.2343535 -7.9370799,1.2182889 -7.869239,1.1470269 C -7.8391203,1.1153883 -7.7750426,1.0888385 -7.6895994,1.0715207 C -7.5660619,1.0464826 -7.5135494,1.0257328 -7.3369735,0.93692271 C -7.2988031,0.91772439 -7.238752,0.8870377 -7.2005806,0.86798232 C -7.1624102,0.84892791 -7.066745,0.82958887 -6.991001,0.82530491 C -6.8638623,0.81811407 -6.8480559,0.81434273 -6.791402,0.74651582 C -6.7558411,0.70394247 -6.7118892,0.67114199 -6.6849492,0.67100965 C -6.6593768,0.67088465 -6.5896946,0.65547561 -6.5319222,0.63818091 C -6.474149,0.62088513 -6.402558,0.6087894 -6.3722429,0.60863498 C -6.3419286,0.60847951 -6.2753953,0.60426798 -6.2225432,0.59878632 C -5.9507429,0.57059665 -5.6043659,0.56340168 -5.5206185,0.58565481 C -5.3699041,0.62570382 -5.1748421,0.87376433 -5.0981331,1.1207639 C -5.0840971,1.1659624 -5.0290097,1.2468432 -4.9783733,1.2980392 L -4.8885535,1.3899598 L -4.7155673,1.3801112 C -4.6216078,1.3736169 -4.4784232,1.35894 -4.3962085,1.3472824 C -4.3139939,1.3356247 -4.1905654,1.3183017 -4.1200956,1.3111707 C -4.0496258,1.3040398 -3.9733824,1.2855149 -3.9537628,1.2684933 C -3.9219743,1.240915 -3.9157529,1.2413017 -3.8938829,1.2816248 C -3.8743449,1.3176546 -3.8593403,1.3249935 -3.8107165,1.3144536 C -3.7520084,1.3017297 -3.7479982,1.3057448 -3.7342035,1.3965255 C -3.7221571,1.4758 -3.7118333,1.4931651 -3.6643431,1.5048605 C -3.5553426,1.5317013 -3.4698452,1.5998517 -3.4048642,1.7182476 L -3.3383308,1.839714 L -3.3715979,2.0202722 C -3.3892032,2.1195853 -3.4048278,2.2268172 -3.4048642,2.2599223 C -3.404905,2.2949529 -3.4307194,2.3545479 -3.4680703,2.401086 C -3.5516075,2.5051725 -3.5689609,2.5919299 -3.5212977,2.663716 C -3.4862814,2.7164543 -3.4852002,2.7195208 -3.5279502,2.7490709 C -3.5672818,2.7762573 -3.5744532,2.8039701 -3.5745241,2.9657408 C -3.574588,3.1132675 -3.582501,3.1614339 -3.61777,3.2185223 C -3.655936,3.2802993 -3.6687072,3.2885711 -3.724223,3.2776142 C -3.8053519,3.2616032 -3.8237094,3.3010093 -3.7774503,3.3925148 C -3.7587496,3.4295099 -3.7441832,3.4750532 -3.7441832,3.4942841 C -3.7441832,3.513516 -3.7162124,3.5561755 -3.6809771,3.5894875 C -3.6457426,3.6228016 -3.61777,3.6650452 -3.61777,3.6814081 C -3.61777,3.730147 -3.5458996,3.8619002 -3.5046637,3.8915122 C -3.4835743,3.9066565 -3.4680703,3.9313175 -3.4680703,3.9473211 C -3.4680703,3.9633237 -3.4116568,4.0228567 -3.3449843,4.0786362 C -3.2343412,4.1712008 -3.1224341,4.2805968 -3.0222983,4.3905097 C -3.0011805,4.4136905 -2.955232,4.4725648 -2.9224988,4.5218247 C -2.8897658,4.5710837 -2.8566725,4.6137452 -2.8459858,4.6137452 C -2.804239,4.6137452 -2.6158127,4.8095834 -2.6031401,4.8665269 C -2.5957815,4.8995857 -2.5742033,4.9374381 -2.5565661,4.9518817 C -2.5024225,4.9962252 -2.463421,5.0918184 -2.46342,5.1784002 C -2.46342,5.2302592 -2.4483205,5.2809689 -2.4201732,5.316281 C -2.3857513,5.3594669 -2.3782366,5.3794595 -2.3968867,5.4016359 C -2.4245861,5.4345728 -2.3763854,5.5374671 -2.2704735,5.664266 C -2.2364374,5.7050136 -2.2072674,5.7605999 -2.2072674,5.7857326 C -2.2072674,5.8108641 -2.1595404,5.9308231 -2.1008145,6.0549285 C -2.0420895,6.1790339 -1.9943615,6.2972122 -1.9943615,6.3175586 C -1.9943615,6.3379051 -2.0265545,6.3979824 -2.0675483,6.4488737 C -2.1403252,6.5392227 -2.1602171,6.6008379 -2.124101,6.6228662 C -2.1142331,6.6288846 -2.0807345,6.715998 -2.047588,6.816556 C -2.0136761,6.9194325 -1.9546255,7.0404692 -1.9145214,7.0923176 C -1.8753211,7.142997 -1.8446618,7.1995874 -1.8446618,7.2203499 C -1.8446618,7.2411125 -1.8342138,7.2700564 -1.8213753,7.2827246 C -1.8044885,7.299389 -1.8031961,7.3374777 -1.8213753,7.4238883 C -1.8351948,7.4895825 -1.844088,7.5559839 -1.8380085,7.5716178 C -1.8125594,7.6370621 -1.8763191,7.7567217 -2.0076684,7.8834912 C -2.0822078,7.9554307 -2.1655658,8.0497466 -2.1906343,8.0903124 C -2.2157011,8.1308783 -2.2536621,8.1820323 -2.2738007,8.2052131 C -2.2939393,8.228395 -2.3153267,8.2868838 -2.3237009,8.3332454 C -2.3320751,8.3796069 -2.3465581,8.4258592 -2.3569671,8.4382975 C -2.3673761,8.4507366 -2.3813987,8.5018907 -2.386907,8.5531981 C -2.3994706,8.6702786 -2.4266448,8.7735512 -2.4700734,8.8683548 C -2.488658,8.9089198 -2.5094077,8.9870693 -2.5166465,9.042347 C -2.5262377,9.11556 -2.543505,9.1534404 -2.5798535,9.1769446 C -2.6254003,9.206394 -2.6302584,9.2204071 -2.6197732,9.3345226 C -2.6120083,9.4190151 -2.6149079,9.4672139 -2.63308,9.4888179 C -2.6543575,9.5141187 -2.6568987,9.5352009 -2.6364063,9.5840214 C -2.6221663,9.6179472 -2.6163804,9.661369 -2.6230994,9.6825081 C -2.6298176,9.7036445 -2.6342855,9.7925512 -2.6364063,9.8794798 C -2.6397157,10.015176 -2.6328467,10.056534 -2.5798535,10.165091 C -2.5459043,10.234633 -2.4848651,10.332884 -2.4434598,10.385044 C -2.4020544,10.437201 -2.3547079,10.499745 -2.340334,10.522925 C -2.3009546,10.586431 -2.1640206,10.861719 -2.1640206,10.877476 C -2.1640206,10.885053 -2.1360507,10.931243 -2.1008145,10.979245 C -2.0655783,11.027246 -2.0376438,11.086221 -2.0376083,11.11056 C -2.0375312,11.162983 -1.9236265,11.394268 -1.8280288,11.534051 C -1.7907568,11.58855 -1.7581683,11.635955 -1.7581683,11.642386 C -1.7581683,11.648817 -1.7301958,11.695918 -1.6949621,11.747438 C -1.6597259,11.798958 -1.6317542,11.849288 -1.631756,11.859056 C -1.631756,11.868826 -1.6186123,11.882241 -1.601816,11.888602 C -1.5598049,11.90451 -1.5312797,12.084612 -1.5652227,12.124969 C -1.5854579,12.149029 -1.5872975,12.193253 -1.568549,12.328506 C -1.5544243,12.430405 -1.5514546,12.531693 -1.5618955,12.568157 C -1.5816908,12.637286 -1.5492663,12.754008 -1.4787291,12.866898 C -1.4458231,12.919561 -1.4332613,12.984403 -1.4255027,13.159074 C -1.420021,13.282513 -1.4070246,13.40057 -1.3955627,13.421705 C -1.3841008,13.442837 -1.3756033,13.493413 -1.3756033,13.533322 C -1.3756033,13.573231 -1.3598404,13.617472 -1.3423362,13.631809 C -1.3225543,13.64801 -1.3146343,13.676875 -1.3223769,13.707315 C -1.3292397,13.734296 -1.3203146,13.783004 -1.3024167,13.81565 C -1.2845488,13.848238 -1.2593056,13.92205 -1.245863,13.979794 C -1.2117151,14.126489 -1.1350691,14.243758 -0.94313727,14.436113 C -0.85211377,14.527342 -0.77680447,14.609295 -0.77680447,14.619955 C -0.77680447,14.630616 -0.75146897,14.668695 -0.72025168,14.70531 C -0.66969778,14.764597 -0.54605838,15.070472 -0.50069237,15.246984 C -0.49141257,15.283093 -0.46018917,15.357798 -0.43083197,15.414411 C -0.40147397,15.471026 -0.35035769,15.570616 -0.3177257,15.634363 C -0.28509634,15.69811 -0.24148146,15.768758 -0.2212524,15.791941 C -0.030089643,16.010984 -0.0025021134,16.376452 -0.1746794,16.395991 C -0.25280673,16.404858 -0.26511124,16.497934 -0.20129304,16.583115 C -0.17685878,16.61573 -0.15804713,16.65114 -0.15804628,16.658622 C -0.15804628,16.666102 -0.1281489,16.713385 -0.091512973,16.766956 C -0.027952023,16.859894 -0.025675073,16.870621 -0.048266203,16.967212 C -0.066389413,17.044686 -0.065042043,17.076609 -0.044939863,17.108376 C -0.011362363,17.161435 -0.00090993338,17.159916 0.024919687,17.10181 C 0.036671607,17.075378 0.064319467,17.05585 0.088126657,17.05585 C 0.12134501,17.05585 0.13137437,17.069053 0.13137267,17.118224 C 0.13137267,17.17127 0.13849443,17.182704 0.17794652,17.177316 C 0.23340919,17.169743 0.33429875,17.228869 0.33429875,17.269237 C 0.33429875,17.284744 0.37009476,17.312699 0.41413888,17.331612 C 0.45818128,17.350524 0.51784208,17.37807 0.54720558,17.393986 C 0.59690618,17.420927 0.60399778,17.417841 0.66363808,17.354592 C 0.70008428,17.315939 0.76864968,17.275352 0.82331748,17.259388 C 0.87616968,17.243957 0.93869368,17.22099 0.95971038,17.210146 C 0.98072978,17.199298 1.0722357,17.188984 1.1626366,17.187165 C 1.3221253,17.183953 1.3299797,17.182997 1.4121359,17.105092 C 1.5147791,17.007763 1.5659903,17.000663 1.7947015,17.046001 C 1.9052267,17.067911 1.9214917,17.065217 1.9577081,17.03287 C 2.0023918,16.992966 2.0816652,17.000701 2.3502536,17.075547 C 2.4748165,17.110258 2.473933,17.110843 2.5265661,17.062416 C 2.5689019,17.023463 2.6035439,17.013174 2.6995522,17.013172 C 2.8028564,17.013172 2.8226685,17.006746 2.8292926,16.970494 C 2.8425906,16.897716 2.8929175,16.875731 3.0222383,16.888423 C 3.170014,16.902927 3.2665768,16.864293 3.511257,16.69145 C 3.7875694,16.496259 4.0375033,16.269166 4.219835,16.048006 C 4.2609352,15.998155 4.3509138,15.913865 4.4194349,15.857599 C 4.5368476,15.761187 4.711285,15.531536 4.7953473,15.361885 C 4.892233,15.166344 5.0407725,14.900997 5.0814399,14.856322 C 5.1062033,14.829117 5.1600914,14.7919 5.2011988,14.770967 C 5.2751412,14.733313 5.4573532,14.548158 5.4573514,14.51162 C 5.4573514,14.501214 5.4754108,14.464921 5.4939448,14.429548 C 5.5124805,14.394177 5.5272518,14.323755 5.5305381,14.275253 C 5.5338245,14.226753 5.5519211,14.150486 5.5671314,14.104543 C 5.5823419,14.058599 5.6053632,13.983479 5.620358,13.937117 C 5.6353527,13.890755 5.6537244,13.777058 5.6602776,13.684334 C 5.6668308,13.591611 5.6795034,13.493743 5.6868912,13.467664 C 5.6965196,13.433677 5.6898929,13.421705 5.666931,13.421705 C 5.6493133,13.421705 5.6277937,13.441587 5.620358,13.467664 C 5.6076347,13.512287 5.6045391,13.51279 5.5771111,13.477513 C 5.5518501,13.445025 5.5583493,13.426879 5.6070511,13.333067 C 5.6554744,13.239789 5.6803745,13.215113 5.7999976,13.155791 C 5.9623788,13.075268 6.0966198,13.015979 6.2158296,12.97195 C 6.2628098,12.954597 6.3489326,12.920975 6.405449,12.899727 C 6.5383718,12.849751 6.6493432,12.720118 6.6649288,12.597702 C 6.6714509,12.546471 6.6655212,12.499329 6.6516219,12.482802 C 6.6207302,12.446069 6.6469634,12.247916 6.6915416,12.180776 C 6.7160406,12.143876 6.7199896,12.12678 6.7015221,12.108555 C 6.6878968,12.09511 6.6749084,12.020139 6.6749084,11.941128 C 6.6749084,11.827679 6.6681193,11.796977 6.638315,11.780267 C 6.6067803,11.762586 6.6058099,11.75092 6.6283353,11.714609 C 6.6430162,11.690944 6.6553225,11.644869 6.6549481,11.61284 C 6.6543326,11.559918 6.6507872,11.559632 6.6250091,11.593143 C 6.5865841,11.643096 6.5684555,11.637959 6.5684555,11.580011 C 6.5684555,11.553353 6.5590444,11.521478 6.545169,11.507788 C 6.5312945,11.494096 6.5105785,11.42265 6.5019222,11.350209 C 6.4897507,11.248334 6.4757973,11.21052 6.4353888,11.176217 C 6.3923195,11.139656 6.3811246,11.110007 6.3788362,11.012073 L 6.3788362,10.893889 L 6.4886154,10.808536 C 6.5502134,10.762834 6.6563088,10.675944 6.7248086,10.611563 C 6.8061203,10.535138 6.8739052,10.488981 6.9210814,10.480246 C 6.9695642,10.471272 6.9983652,10.451488 7.0075741,10.421155 C 7.0151243,10.396293 7.0526614,10.343538 7.0907405,10.302973 C 7.1288186,10.262405 7.1950406,10.181402 7.2371139,10.125697 C 7.3103743,10.028696 7.4725887,9.9032683 7.5232065,9.9024608 C 7.5364477,9.9022507 7.5584844,9.8870181 7.5731057,9.8696319 C 7.587729,9.8522456 7.6138717,9.8371652 7.6329856,9.8368029 C 7.6521024,9.8364407 7.7173061,9.812782 7.7760319,9.7842772 C 7.8347569,9.7557678 7.9076412,9.7318579 7.9390385,9.7317515 C 7.9704349,9.731647 8.0222724,9.7094137 8.0554711,9.6825081 C 8.0886708,9.6556007 8.1746215,9.6002323 8.2450913,9.5577581 C 8.3781065,9.4775846 8.4306047,9.4209392 8.4579972,9.3312399 C 8.4668442,9.3022632 8.5062742,9.2470579 8.5444899,9.2064902 C 8.6211528,9.1251086 8.657331,9.0593954 8.7208033,8.8979005 C 8.7675758,8.7788919 8.7627453,8.6945079 8.6941895,8.5433495 C 8.6636997,8.4761267 8.6532667,8.3963743 8.6509428,8.1526871 C 8.6493391,7.9846269 8.638217,7.779748 8.62433,7.6963671 C 8.60337,7.5705189 8.6037878,7.5188648 8.6309834,7.3910595 C 8.6490011,7.3063802 8.6642345,7.2167225 8.6642496,7.1940869 C 8.6642842,7.1375531 8.5530148,6.9880766 8.501244,6.9741341 C 8.3735828,6.9397559 8.3229924,6.8580895 8.3082975,6.6688265 C 8.3057349,6.6358139 8.2664868,6.541162 8.2218039,6.4554395 L 8.1419647,6.2978614 L 8.1852115,6.2092238 C 8.2262557,6.1294629 8.2295155,6.1175826 8.2018446,6.0647771 C 8.1595992,5.9841591 8.1647571,5.9113317 8.2151514,5.8481072 C 8.2386411,5.818638 8.255071,5.7779493 8.255071,5.7561866 C 8.255071,5.734424 8.196291,5.6611827 8.1220044,5.5920428 C 7.9721477,5.4525714 7.9345032,5.364583 7.9856115,5.2670379 C 8.0454693,5.1527969 8.0854129,5.0511129 8.0854111,5.0076906 C 8.0854111,4.9830758 8.1229171,4.9157017 8.1685774,4.8566783 C 8.252332,4.7484105 8.3481346,4.5575141 8.3748308,4.4496014 C 8.3827908,4.4174198 8.4137863,4.3641804 8.4413641,4.3314179 C 8.473565,4.29316 8.4912625,4.2456638 8.4912634,4.19682 C 8.4912634,4.1086139 8.5605286,4.0228273 8.6309834,4.0228273 C 8.7168792,4.0228273 9.1333073,3.6253397 9.1333081,3.5435273 C 9.1333081,3.5096857 9.4370624,3.1622669 9.7188004,2.8738203 C 9.8585284,2.7307667 10.219835,2.4206258 10.274352,2.3978032 C 10.297841,2.3879702 10.380976,2.3424344 10.457318,2.2960339 C 10.53366,2.2496334 10.629116,2.1940336 10.670224,2.1712846 C 10.764534,2.1190926 10.979218,1.9367106 11.039484,1.8594112 C 11.064661,1.8271182 11.154511,1.7302329 11.239083,1.6427413 C 11.479732,1.3937827 11.590697,1.2615641 11.624975,1.1798556 C 11.642373,1.138379 11.686522,1.0653562 11.724774,1.0189946 C 11.84575,0.8723798 11.970948,0.66717841 11.970948,0.61520073 C 11.970948,0.56336175 12.03167,0.44303091 12.147261,0.26064997 C 12.183988,0.20269798 12.232148,0.1088077 12.253714,0.053828725 C 12.275277,-0.0011492849 12.329744,-0.083574065 12.3768,-0.13001246 C 12.428096,-0.18063386 12.463294,-0.23491946 12.463293,-0.26461036 C 12.463293,-0.29184826 12.490737,-0.35072366 12.523172,-0.39592546 C 12.623404,-0.53561006 12.652277,-0.61914756 12.666218,-0.78987086 C 12.678466,-0.93987136 12.684583,-0.95564076 12.732752,-0.97371186 C 12.766569,-0.98640106 12.800361,-0.98720056 12.825899,-0.97371186 C 12.879158,-0.94558306 12.881981,-0.94367956 12.885779,-0.99340916 C 12.887922,-1.0214874 12.869812,-1.0430526 12.835878,-1.0557839 C 12.807204,-1.0665423 12.780791,-1.090637 12.779325,-1.1083098 C 12.765711,-1.2721827 12.771973,-1.3765299 12.799285,-1.453012 C 12.837132,-1.5589822 12.829581,-1.572223 12.696158,-1.6073072 C 12.583184,-1.637015 12.533746,-1.6250495 12.509866,-1.561347 C 12.491918,-1.5134694 12.375319,-1.4602469 12.250386,-1.4431633 C 12.20928,-1.4375431 12.13588,-1.4131269 12.087381,-1.3906373 C 11.999817,-1.3500327 11.971177,-1.3457329 11.774674,-1.3512428 C 11.718425,-1.3528196 11.659156,-1.3458579 11.644935,-1.3348284 C 11.605291,-1.3040754 11.422511,-1.2871727 11.365495,-1.3085653 C 11.330111,-1.3218408 11.297615,-1.3168865 11.255716,-1.2954338 C 11.222635,-1.2784973 11.183214,-1.2704378 11.169223,-1.2757366 C 11.155232,-1.2810354 11.135315,-1.2637754 11.12265,-1.2363421 C 11.093396,-1.1729831 10.993281,-1.1504421 10.789984,-1.1674017 C 10.643807,-1.1795951 10.630317,-1.1788114 10.467299,-1.0984613 C 10.253532,-0.99309926 10.162152,-0.98901796 10.024853,-1.078764 C 9.9086194,-1.1547407 9.8999594,-1.1630566 9.8252534,-1.3052825 C 9.7932904,-1.3661329 9.7555374,-1.4164844 9.7420874,-1.4169004 C 9.7286344,-1.4173174 9.6902624,-1.4381829 9.6555944,-1.4661436 C 9.5937264,-1.5160442 9.5933904,-1.5189111 9.6323084,-1.561347 C 9.6541154,-1.5851266 9.6922784,-1.6040244 9.7154744,-1.6040244 C 9.7525164,-1.6040244 9.7546904,-1.6140075 9.7454134,-1.6926621 C 9.7311224,-1.8138396 9.6120724,-2.0045354 9.5491414,-2.0045354 C 9.5149574,-2.0045354 9.4862404,-2.0310978 9.4493404,-2.0997388 C 9.4213034,-2.1518961 9.3920904,-2.1949423 9.3828084,-2.1949423 C 9.3735238,-2.1949423 9.3258147,-2.2329963 9.2763542,-2.2802971 C 9.2268909,-2.3275979 9.160933,-2.3791416 9.1299819,-2.3951978 C 9.0990342,-2.4112549 9.0496938,-2.4670009 9.0202018,-2.5166642 C 8.9524692,-2.6307183 8.9039218,-2.6699289 8.8206027,-2.6873739 C 8.7832767,-2.6951897 8.733836,-2.7277255 8.7074964,-2.76288 C 8.6818433,-2.7971239 8.6462985,-2.8252547 8.6276563,-2.8252547 C 8.6090168,-2.8252547 8.5558985,-2.865181 8.5112236,-2.9106096 C 8.4577036,-2.965033 8.3962076,-3.0033349 8.3282578,-3.0222274 C 8.2431834,-3.0458797 8.2194862,-3.0608124 8.2018446,-3.1141479 C 8.190082,-3.1497066 8.1679521,-3.1935991 8.1519444,-3.2126342 C 8.1359383,-3.2316682 8.1178719,-3.3115626 8.1120247,-3.3899097 C 8.1061759,-3.4682578 8.0901902,-3.5503995 8.0754314,-3.5737508 C 8.0606707,-3.5971017 8.0410449,-3.6515384 8.0321845,-3.6919343 C 7.9957793,-3.8579303 7.840079,-4.1011074 7.7494191,-4.1351227 C 7.7200744,-4.1461327 7.6917834,-4.1731847 7.6862122,-4.1942146 C 7.6806382,-4.2152448 7.6474261,-4.2463858 7.6130263,-4.2664378 C 7.5786282,-4.2864898 7.5531464,-4.3116819 7.5531464,-4.3222467 C 7.5531464,-4.3328117 7.5272006,-4.3556642 7.4965927,-4.3714899 C 7.4118928,-4.4152844 7.3557453,-4.5868216 7.3468931,-4.8376585 C 7.3428528,-4.9521623 7.3344671,-5.0825548 7.3269337,-5.1265517 C 7.3189365,-5.1732673 7.3225847,-5.2248761 7.3369134,-5.2513011 C 7.3564373,-5.2873013 7.3571167,-5.3034294 7.33026,-5.3399388 C 7.3116949,-5.3651785 7.2786913,-5.406679 7.2604004,-5.4318594 C 7.2421086,-5.4570402 7.2238035,-5.5324202 7.2171537,-5.5960035 C 7.2068573,-5.6944619 7.1940498,-5.7161985 7.1373143,-5.7568641 C 7.1006758,-5.7831254 7.0400065,-5.8405533 7.0009206,-5.8848965 C 6.9618348,-5.9292397 6.9118955,-5.9669681 6.8911414,-5.9669681 C 6.843324,-5.9669681 6.8012374,-6.014048 6.7314621,-6.1442438 C 6.6613861,-6.2750005 6.6566796,-6.394911 6.7214815,-6.439703 C 6.7617878,-6.4675623 6.7661502,-6.4787477 6.744768,-6.5250573 C 6.7312137,-6.5544148 6.7064751,-6.5775833 6.6915416,-6.5775833 C 6.6462342,-6.5775841 6.5541153,-6.7123276 6.4620026,-6.9091543 C 6.3561936,-7.1352502 6.3836136,-7.0838488 6.1659303,-7.4705261 C 6.1014424,-7.5850754 6.0547204,-7.7507447 6.0561502,-7.8579062 C 6.0564962,-7.8838565 6.0408006,-7.9070621 6.0195569,-7.9137149 C 5.9620586,-7.9317244 5.9039864,-8.0421077 5.9197574,-8.1041221 C 5.9310037,-8.1483452 5.9118577,-8.1824235 5.8033239,-8.3010943 C 5.7316548,-8.3794584 5.6735844,-8.4521529 5.6735844,-8.4652384 C 5.6735844,-8.4783241 5.6515654,-8.5165066 5.6270113,-8.5473101 C 5.602459,-8.5781149 5.5812154,-8.6232667 5.5771111,-8.6490801 C 5.5616542,-8.7462982 5.5268233,-8.8549372 5.5039253,-8.8821639 C 5.4861409,-8.9033114 5.4863741,-8.9181529 5.5105788,-8.9379729 C 5.5621536,-8.9802156 5.5497719,-9.0317789 5.4606786,-9.1316631 C 5.4149002,-9.1829851 5.3630397,-9.2556701 5.3442451,-9.2958071 C 5.3254503,-9.3359411 5.2916386,-9.3964951 5.2710593,-9.4271221 C 5.2504816,-9.4577461 5.2007065,-9.5354381 5.1612791,-9.6011141 C 5.0547038,-9.7786411 4.9483511,-9.8604411 4.8951468,-9.8079351 C 4.8873811,-9.8002741 4.8502173,-9.7919461 4.8119804,-9.7882381 C 4.7737425,-9.7845311 4.7195936,-9.7782251 4.6922206,-9.7751071 C 4.6648441,-9.7719871 4.6307344,-9.7527131 4.6157076,-9.7324291 C 4.6006809,-9.7121471 4.5695418,-9.6963181 4.5458472,-9.6963181 C 4.5221553,-9.6963181 4.4914321,-9.6818531 4.4759877,-9.6634881 C 4.428179,-9.6066391 4.2695977,-9.5085101 4.2065282,-9.4960621 C 4.1658422,-9.4880331 4.1111628,-9.4986311 4.0368691,-9.5354561 C 3.9765945,-9.5653311 3.8957068,-9.5912661 3.8572294,-9.5912661 C 3.8187521,-9.5912661 3.7680332,-9.6057131 3.7474494,-9.6240941 C 3.7268673,-9.6424751 3.6726296,-9.6607201 3.6276905,-9.6634881 C 3.5827495,-9.6662581 3.5027737,-9.6874431 3.4480508,-9.7127321 C 3.3933262,-9.7380201 3.3019772,-9.7655041 3.2451247,-9.7718241 C 3.1882713,-9.7781441 3.091021,-9.7984441 3.0288916,-9.8177841 C 2.9229169,-9.8507741 2.9097156,-9.8518001 2.8126587,-9.8177841 C 2.7557609,-9.7978431 2.6992907,-9.7816731 2.6862463,-9.7816721 C 2.6732011,-9.7816721 2.6409489,-9.8220251 2.6163859,-9.8735931 C 2.5536215,-10.005362 2.5281689,-10.023806 2.3801935,-10.018039 C 2.2827721,-10.014244 2.2340738,-10.021533 2.1805937,-10.054151 C 2.1420232,-10.077675 2.0776514,-10.096829 2.0342211,-10.096829 C 1.9243283,-10.096829 1.8716066,-10.129905 1.8712145,-10.198598 C 1.8707693,-10.276463 1.8498102,-10.30203 1.7747422,-10.320065 C 1.7396239,-10.328499 1.6582262,-10.358469 1.5951026,-10.385722 C 1.471432,-10.439119 1.2387452,-10.454263 1.1959037,-10.411985 C 1.1832284,-10.399477 1.1340937,-10.379945 1.0861236,-10.369308 C 0.97164508,-10.343924 0.76011228,-10.24818 0.76011138,-10.221578 C 0.76011138,-10.210078 0.74037378,-10.190966 0.71353828,-10.1789 C 0.68670198,-10.166833 0.64137438,-10.11541 0.61373788,-10.064 C 0.57118298,-9.9848391 0.56526938,-9.9536281 0.57714548,-9.8538961 C 0.58485978,-9.7891281 0.60362428,-9.7086171 0.62039138,-9.6766201 C 0.65737948,-9.6060341 0.64445758,-9.5459111 0.56716488,-9.4336881 C 0.50642908,-9.3455051 0.32995243,-9.2334321 0.25113242,-9.2334321 C 0.20976433,-9.2334321 -0.057717233,-9.4034791 -0.084859533,-9.4468191 C -0.12065101,-9.5039691 -0.57345518,-9.6529461 -0.71027118,-9.6536391 C -0.86216177,-9.6544111 -0.96632447,-9.6865961 -1.0362842,-9.7521261 C -1.1169112,-9.8276511 -1.2026171,-9.9915351 -1.2026171,-10.070567 C -1.2026171,-10.154278 -1.2626948,-10.19917 -1.4022161,-10.221578 C -1.4780097,-10.233751 -1.5540633,-10.265662 -1.6117957,-10.306933 C -1.6750604,-10.352159 -1.7244124,-10.372591 -1.7814557,-10.372591 C -1.8262751,-10.372591 -1.8967077,-10.386077 -1.9378079,-10.405419 C -2.0079185,-10.438414 -2.0207011,-10.44029 -2.1374078,-10.405419 C -2.2773709,-10.363601 -2.3922149,-10.378732 -2.4900337,-10.454662 C -2.5193333,-10.477407 -2.5890021,-10.511327 -2.646386,-10.530169 C -2.7923114,-10.578081 -2.8493122,-10.615435 -2.8493122,-10.671332 C -2.8493122,-10.697722 -2.8585228,-10.729261 -2.8692724,-10.740272 C -2.8800229,-10.751283 -2.891954,-10.783521 -2.8958852,-10.812497 C -2.9059881,-10.886974 -2.9794427,-10.895184 -3.0256255,-10.825628 C -3.069408,-10.759684 -3.0969965,-10.758167 -3.1719981,-10.819061 C -3.2110005,-10.850727 -3.2363387,-10.893094 -3.2451847,-10.950376 L -3.2584916,-11.039014 L -3.1154453,-11.140784 C -2.9976405,-11.226033 -2.9573927,-11.26754 -2.9058658,-11.373868 C -2.8553322,-11.478147 -2.8506896,-11.513595 -2.8692724,-11.54786 C -2.8819965,-11.571323 -2.8892327,-11.614357 -2.8892327,-11.643064 C -2.8892327,-11.689785 -2.9933412,-11.803925 -3.0356052,-11.803925 C -3.04359,-11.803925 -3.0637374,-11.844772 -3.078852,-11.892563 C -3.1030211,-11.968984 -3.1007689,-11.98253 -3.0688714,-12.017311 C -3.0489236,-12.039064 -3.0211701,-12.056706 -3.0056652,-12.056706 C -2.9901622,-12.056706 -2.9562307,-12.100456 -2.9324785,-12.15191 C -2.9087246,-12.203363 -2.8810482,-12.24978 -2.8692724,-12.256963 C -2.8379594,-12.276061 -2.8442305,-12.343179 -2.879252,-12.371863 C -2.9034372,-12.391669 -2.9296144,-12.382413 -3.0089915,-12.322619 C -3.0636948,-12.281413 -3.1137857,-12.247114 -3.1220987,-12.247114 C -3.1480986,-12.247114 -3.2092035,-12.361934 -3.2052652,-12.404691 C -3.2026352,-12.433245 -3.2252751,-12.458645 -3.2851044,-12.486764 C -3.3320846,-12.508842 -3.3796014,-12.536017 -3.388231,-12.549138 C -3.3938503,-12.557681 -3.3956411,-12.562198 -3.3982107,-12.562269 z M 12.04746,7.6668213 C 12.018811,7.6662172 11.978382,7.7047461 11.967621,7.7620247 C 11.962846,7.7874326 11.934291,7.8100734 11.891108,7.8211164 C 11.811616,7.841444 11.809928,7.8471211 11.854514,7.9524316 C 11.881492,8.0161467 11.885191,8.0430767 11.864495,8.1067268 C 11.850608,8.1494274 11.83507,8.1972901 11.831228,8.2117789 C 11.821094,8.2499548 11.714469,8.2432336 11.668221,8.2019303 C 11.637385,8.1743898 11.625058,8.1723045 11.605015,8.1920816 C 11.584974,8.2118598 11.584474,8.2261584 11.605015,8.2544563 C 11.64754,8.3130343 11.657525,8.343801 11.641608,8.3595084 C 11.633404,8.3676048 11.616464,8.356716 11.605015,8.3365282 C 11.555391,8.2490209 11.430549,8.3365576 11.478602,8.4251658 C 11.512074,8.486885 11.508054,8.5415888 11.461969,8.5827441 C 11.439131,8.6031409 11.41566,8.6513409 11.412068,8.6877961 C 11.406361,8.7458006 11.397228,8.7541711 11.335556,8.7600194 C 11.281879,8.7651081 11.25894,8.7793332 11.242409,8.822394 C 11.219753,8.8814156 11.143002,8.973405 11.115996,8.9734059 C 11.107392,8.9734059 11.033362,9.0162863 10.95299,9.06861 C 10.87262,9.1209327 10.770432,9.1742901 10.723451,9.1867934 C 10.676471,9.1992968 10.620203,9.2251376 10.600365,9.2426021 C 10.580525,9.2600701 10.531648,9.2721496 10.490585,9.2721478 C 10.444354,9.2721478 10.400215,9.2900345 10.377478,9.3148258 C 10.351166,9.3435198 10.314201,9.3542208 10.241086,9.3542199 C 10.156633,9.3542199 10.13628,9.36075 10.124653,9.3968977 C 10.116928,9.4209149 10.117515,9.4640426 10.124653,9.4921002 C 10.134181,9.5295633 10.110315,9.586218 10.03816,9.7087705 L 9.9383594,9.8761975 L 9.9616464,10.066604 C 9.9744744,10.17073 10.000674,10.287844 10.0182,10.329235 C 10.035725,10.370627 10.051097,10.43564 10.051466,10.473682 C 10.051833,10.51172 10.073623,10.58014 10.101366,10.624694 C 10.14369,10.692651 10.148222,10.718524 10.131306,10.778989 C 10.120216,10.818627 10.117811,10.859985 10.124653,10.87091 C 10.143352,10.900763 10.080202,11.03277 10.001566,11.130256 C 9.9632294,11.177784 9.9234894,11.258863 9.9117474,11.310815 C 9.8955234,11.382579 9.8739244,11.412274 9.8252534,11.438847 C 9.7900184,11.458084 9.7591104,11.49211 9.7553944,11.514354 C 9.7516794,11.536596 9.7257784,11.604131 9.6988404,11.662083 C 9.6583044,11.749291 9.6523184,11.784979 9.6655744,11.872188 C 9.6866074,12.010533 9.7180614,12.101169 9.7720264,12.187343 C 9.8095524,12.247258 9.8174874,12.295992 9.8219274,12.522197 C 9.8253694,12.697527 9.8331194,12.788016 9.8485404,12.788109 C 9.8935004,12.788382 9.9414804,12.862261 9.9483404,12.945687 C 9.9536554,13.010348 9.9654104,13.031934 9.9982394,13.037608 C 10.021728,13.041664 10.061156,13.068787 10.088059,13.0967 C 10.120078,13.12992 10.162567,13.145943 10.207819,13.145943 C 10.258362,13.145943 10.291827,13.163911 10.334232,13.211601 C 10.389431,13.273679 10.395326,13.275127 10.500565,13.260843 C 10.569961,13.251425 10.64393,13.22644 10.696837,13.18862 C 10.780927,13.128507 10.842616,13.108444 10.99291,13.0967 C 11.137732,13.085384 11.207774,13.008218 11.285656,12.774977 C 11.323628,12.661267 11.364747,12.55947 11.375476,12.54846 C 11.386204,12.537447 11.39516,12.502509 11.395436,12.472953 C 11.395714,12.443398 11.417485,12.349778 11.442009,12.262849 C 11.466535,12.175921 11.492639,12.054887 11.501889,11.996937 C 11.511139,11.938984 11.55142,11.813128 11.591708,11.714609 C 11.631997,11.616089 11.683639,11.463401 11.704815,11.376472 C 11.758877,11.154542 11.799863,11.021832 11.821247,11.008791 C 11.831304,11.002658 11.851075,10.943917 11.864495,10.877476 C 11.892157,10.740491 11.954875,10.554776 12.027501,10.391609 C 12.086278,10.259557 12.124256,10.081647 12.130626,9.9221576 C 12.136719,9.7697345 12.161815,9.6696318 12.19716,9.6562448 C 12.260021,9.6324376 12.292544,9.3923989 12.240407,9.3345226 C 12.223919,9.316225 12.207884,9.2583988 12.203813,9.2064902 C 12.197956,9.1317852 12.202463,9.110167 12.230427,9.1047218 C 12.254769,9.0999816 12.273005,9.1219274 12.290307,9.173662 C 12.316594,9.2522663 12.373195,9.296666 12.413393,9.2721478 C 12.451934,9.24864 12.522829,9.0410589 12.509866,8.989821 C 12.503279,8.9637867 12.485738,8.9240469 12.469946,8.9011832 C 12.454155,8.878322 12.443334,8.838259 12.443333,8.8125455 C 12.443333,8.7868318 12.431791,8.7606161 12.420046,8.7534536 C 12.408302,8.7462902 12.400085,8.6798604 12.400086,8.6057241 C 12.400086,8.4407557 12.308187,8.105691 12.23708,8.0115233 C 12.209217,7.974628 12.183852,7.9327396 12.183853,7.9196027 C 12.183853,7.906466 12.15999,7.8656722 12.130626,7.8276823 C 12.101264,7.7896922 12.077399,7.7377671 12.0774,7.7127815 C 12.0774,7.6812407 12.06465,7.6671837 12.04746,7.6668213 z"
   id="path3196" />
</svg>
